<svg id="Layer_1" data-name="Layer 1" xmlns="http://www.w3.org/2000/svg" viewBox="0 0 137.5 110"><defs><style>.cls-1{fill:#814ce4;}</style></defs><path class="cls-1" d="M131.51,39.9H75.93V30.59L75,28.45,49.3,2.71l-2.14-.89H12.84A11.6,11.6,0,0,0,1.28,13.43l0,68.64A11.59,11.59,0,0,0,12.8,93.67H48.56V106.8l3,3h79.93l3-3V42.93Zm-3,12.82H54.61V46h73.88ZM66.41,28.37H47.91V9.88ZM12.8,87.62a5.54,5.54,0,0,1-5.51-5.55l0-68.64a5.55,5.55,0,0,1,5.51-5.56h29V31.4l3,3h25V39.9H51.58l-3,3V87.62Zm41.81,16.15v-45h73.88v45Z"/><path class="cls-1" d="M62.46,66.34,61,67.86v3l1.51,1.51h40.9l1.51-1.51v-3l-1.51-1.52Z"/><rect class="cls-1" x="73.45" y="76.8" width="7.56" height="6.05" rx="1.51"/><rect class="cls-1" x="96.15" y="76.8" width="7.56" height="6.05" rx="1.51"/><rect class="cls-1" x="62.11" y="76.8" width="7.56" height="6.05" rx="1.51"/><rect class="cls-1" x="84.8" y="76.8" width="7.56" height="6.05" rx="1.51"/><rect class="cls-1" x="73.45" y="86.39" width="7.56" height="6.05" rx="1.51"/><rect class="cls-1" x="84.8" y="86.39" width="7.56" height="6.05" rx="1.51"/><rect class="cls-1" x="62.11" y="86.39" width="7.56" height="6.05" rx="1.51"/></svg>