<svg id="Layer_1" data-name="Layer 1" xmlns="http://www.w3.org/2000/svg" viewBox="0 0 360 160"><defs><style>.cls-1{fill:#814ce4;}</style></defs><path class="cls-1" d="M101.27,58.3l-1.16-2.79L66.48,21.88l-2.79-1.16H18.85A15.15,15.15,0,0,0,3.74,35.88l-.05,89.68a15.14,15.14,0,0,0,15.1,15.16H86.1a15.18,15.18,0,0,0,15.17-15.16V87.9h10.18V80H101.27ZM64.66,31.24,88.83,55.41H64.66Zm28.7,94.32a7.26,7.26,0,0,1-7.26,7.25H18.79a7.23,7.23,0,0,1-7.2-7.25l.06-89.68a7.23,7.23,0,0,1,7.2-7.25H56.76V59.36l4,4H93.36Z"/><polygon class="cls-1" points="221.6 127.24 217.16 127.24 217.16 135.15 225.56 135.15 229.51 131.19 229.51 122.79 221.6 122.79 221.6 127.24"/><rect class="cls-1" x="193.33" y="127.24" width="17.61" height="7.91"/><rect class="cls-1" x="169.51" y="127.24" width="17.61" height="7.91"/><rect class="cls-1" x="145.69" y="127.24" width="17.61" height="7.91"/><polygon class="cls-1" points="135.03 122.79 127.12 122.79 127.12 131.19 131.07 135.15 139.47 135.15 139.47 127.24 135.03 127.24 135.03 122.79"/><polygon class="cls-1" points="127.12 36.71 127.12 45.11 135.03 45.11 135.03 40.66 139.47 40.66 139.47 32.76 131.07 32.76 127.12 36.71"/><rect class="cls-1" x="193.33" y="32.75" width="17.61" height="7.91"/><rect class="cls-1" x="169.51" y="32.75" width="17.61" height="7.91"/><rect class="cls-1" x="145.69" y="32.75" width="17.61" height="7.91"/><polygon class="cls-1" points="221.6 45.11 229.51 45.11 229.51 36.71 225.56 32.76 217.16 32.76 217.16 40.66 221.6 40.66 221.6 45.11"/><polygon class="cls-1" points="229.51 75.15 221.6 75.15 221.6 92.75 229.51 92.75 229.51 87.9 239.04 87.9 239.04 80 229.51 80 229.51 75.15"/><rect class="cls-1" x="221.6" y="98.97" width="7.91" height="17.61"/><rect class="cls-1" x="221.6" y="51.32" width="7.91" height="17.61"/><rect class="cls-1" x="127.12" y="51.32" width="7.91" height="17.61"/><polygon class="cls-1" points="127.12 92.75 135.03 92.75 135.03 75.15 127.12 75.15 127.12 80 117.38 80 117.38 87.9 127.12 87.9 127.12 92.75"/><rect class="cls-1" x="127.12" y="98.97" width="7.91" height="17.61"/><polygon class="cls-1" points="349.19 127.24 344.74 127.24 344.74 135.15 353.14 135.15 357.09 131.19 357.09 122.79 349.19 122.79 349.19 127.24"/><rect class="cls-1" x="297.1" y="127.24" width="17.61" height="7.91"/><rect class="cls-1" x="320.92" y="127.24" width="17.61" height="7.91"/><rect class="cls-1" x="273.27" y="127.24" width="17.61" height="7.91"/><polygon class="cls-1" points="262.61 122.79 254.7 122.79 254.7 131.19 258.66 135.15 267.06 135.15 267.06 127.24 262.61 127.24 262.61 122.79"/><polygon class="cls-1" points="254.7 36.71 254.7 45.11 262.61 45.11 262.61 40.66 267.06 40.66 267.06 32.76 258.66 32.76 254.7 36.71"/><rect class="cls-1" x="273.27" y="32.75" width="17.61" height="7.91"/><rect class="cls-1" x="320.92" y="32.75" width="17.61" height="7.91"/><rect class="cls-1" x="297.1" y="32.75" width="17.61" height="7.91"/><polygon class="cls-1" points="353.14 32.76 344.74 32.76 344.74 40.66 349.19 40.66 349.19 45.11 357.09 45.11 357.09 36.71 353.14 32.76"/><rect class="cls-1" x="349.19" y="98.97" width="7.91" height="17.61"/><rect class="cls-1" x="349.19" y="51.32" width="7.91" height="17.61"/><rect class="cls-1" x="349.19" y="75.15" width="7.91" height="17.61"/><polygon class="cls-1" points="254.7 92.75 262.61 92.75 262.61 75.15 254.7 75.15 254.7 80 244.97 80 244.97 87.9 254.7 87.9 254.7 92.75"/><rect class="cls-1" x="254.7" y="98.97" width="7.91" height="17.61"/><rect class="cls-1" x="254.7" y="51.32" width="7.91" height="17.61"/><polygon class="cls-1" points="195.55 97.44 178.25 97.44 162.21 97.44 174.44 107.77 195.55 97.44"/><polygon class="cls-1" points="160.5 92.49 174.44 92.49 174.44 69.35 160.5 92.49"/><polygon class="cls-1" points="180.72 54.74 180.72 92.49 195.55 92.49 180.72 54.74"/><path class="cls-1" d="M302.73,80.19a.94.94,0,0,0,1.49-.72h0l.32-5.6a11.29,11.29,0,0,0-1.14.19,11,11,0,0,0-5.29,2.89l4.59,3.26Z"/><path class="cls-1" d="M300.28,84.42a1,1,0,0,0,.49-.32.94.94,0,0,0-.12-1.29v0L296.46,79a11.05,11.05,0,0,0-1.56,7l5.37-1.55Z"/><path class="cls-1" d="M307.56,79.45a.94.94,0,0,0,1.5.72h0l4.56-3.24a11.1,11.1,0,0,0-6.39-3.08l.31,5.59Z"/><polygon class="cls-1" points="304.35 86.07 305.9 86.81 307.44 86.07 307.82 84.41 306.75 83.07 305.04 83.07 303.97 84.41 304.35 86.07"/><path class="cls-1" d="M302.11,88.39a1,1,0,0,0-.9-.73l-.19,0h0l-5.51.93a11,11,0,0,0,4.44,5.55L302.07,89v0A.94.94,0,0,0,302.11,88.39Z"/><path class="cls-1" d="M315.31,79l-4.17,3.74h0a.92.92,0,0,0-.3.5,1,1,0,0,0,.67,1.12v0l5.4,1.55a10.91,10.91,0,0,0-.23-3.58A11.21,11.21,0,0,0,315.31,79Z"/><path class="cls-1" d="M331.47,89.35l-4.41-19.14a3.38,3.38,0,0,0-1.85-2.3l-17.84-8.52a3.46,3.46,0,0,0-1.65-.33,3.72,3.72,0,0,0-1.31.33l-17.83,8.53a3.36,3.36,0,0,0-1.85,2.29l-4.4,19.15a3.38,3.38,0,0,0,.46,2.59l.2.27,12.34,15.35a3.44,3.44,0,0,0,2.67,1.27h19.8a3.44,3.44,0,0,0,2.67-1.27l12.34-15.36A3.35,3.35,0,0,0,331.47,89.35Zm-6.79-.23a1.13,1.13,0,0,1-1.38.78h0l-.28-.06a9.1,9.1,0,0,1-1-.37,9.92,9.92,0,0,0-1.86-.55.89.89,0,0,0-.6.22l-.45-.08A13.92,13.92,0,0,1,313,96.8a4,4,0,0,0,.18.43.81.81,0,0,0-.08.63,10,10,0,0,0,.95,1.69c.19.29.39.52.57.85l.14.29a1.07,1.07,0,1,1-1.93.91l-.14-.27a10,10,0,0,1-.31-1,9.6,9.6,0,0,0-.73-1.79.82.82,0,0,0-.54-.34s-.16-.29-.23-.41a13.65,13.65,0,0,1-9.85,0l-.25.44a.86.86,0,0,0-.46.22,7.64,7.64,0,0,0-.82,1.92c-.11.33-.16.63-.31,1,0,.08-.09.19-.13.27h0a1.15,1.15,0,0,1-1.48.61,1.12,1.12,0,0,1-.45-1.52l.13-.29a9,9,0,0,1,.58-.85,10,10,0,0,0,1-1.74,1,1,0,0,0-.09-.6l.19-.47a13.88,13.88,0,0,1-6.15-7.69l-.47.08a1.19,1.19,0,0,0-.61-.21,10.12,10.12,0,0,0-1.87.54,8.16,8.16,0,0,1-.95.37l-.28.06h0a1.07,1.07,0,1,1-.47-2.08h0l.29-.07a9.11,9.11,0,0,1,1-.08,9.58,9.58,0,0,0,1.92-.32,1.55,1.55,0,0,0,.46-.46l.44-.13a13.82,13.82,0,0,1,2.18-9.63l-.34-.31a1.17,1.17,0,0,0-.21-.61,9.93,9.93,0,0,0-1.59-1.12,8.21,8.21,0,0,1-.89-.52l-.22-.17v0a1.13,1.13,0,0,1-.27-1.57,1,1,0,0,1,.85-.38,1.29,1.29,0,0,1,.75.28l.23.19a8.24,8.24,0,0,1,.71.75A9.7,9.7,0,0,0,294.8,75a.8.8,0,0,0,.63.06l.39.27a13.75,13.75,0,0,1,7-4,14.57,14.57,0,0,1,1.93-.3l0-.45a1.12,1.12,0,0,0,.34-.55,9.69,9.69,0,0,0-.11-1.94,8.18,8.18,0,0,1-.15-1v-.31a1.08,1.08,0,1,1,2.14,0v.31c0,.37-.1.66-.15,1A9.76,9.76,0,0,0,306.7,70a.81.81,0,0,0,.35.53c0,.08,0,.34,0,.48a14,14,0,0,1,8.87,4.28l.4-.29A1.18,1.18,0,0,0,317,75a10.23,10.23,0,0,0,1.44-1.3,8.24,8.24,0,0,1,.71-.75l.23-.19a1.07,1.07,0,1,1,1.33,1.67l-.23.19a9.29,9.29,0,0,1-.89.52A9.33,9.33,0,0,0,318,76.21a.84.84,0,0,0-.2.6l-.38.34a13.91,13.91,0,0,1,2.23,9.61l.43.12a1.27,1.27,0,0,0,.46.47,10.44,10.44,0,0,0,1.91.31,9.29,9.29,0,0,1,1,.08l.31.08A1.13,1.13,0,0,1,324.68,89.12Z"/><path class="cls-1" d="M306.73,90.42a.93.93,0,0,0-.43-.4,1,1,0,0,0-.44-.1.94.94,0,0,0-.79.5h0l-2.71,4.9a11.07,11.07,0,0,0,6,.31,9.55,9.55,0,0,0,1.08-.3l-2.71-4.91Z"/><path class="cls-1" d="M310.76,87.66a.78.78,0,0,0-.22,0,1.19,1.19,0,0,0-.36.09.94.94,0,0,0-.45,1.22h0l2.16,5.22a11,11,0,0,0,4.45-5.6l-5.56-.94Z"/></svg>