<svg id="Layer_1" data-name="Layer 1" xmlns="http://www.w3.org/2000/svg" viewBox="0 0 320 180"><defs><style>.cls-1{fill:#814ce4;}</style></defs><path class="cls-1" d="M315.3,108.93H265.08A40,40,0,0,0,229.3,76c-.24-1.21-.5-2.43-.8-3.62-.47-1.94-1-3.89-1.67-5.79a75.88,75.88,0,0,0-34.28-41.8l-1.46-1.32L176,15,152.9,1.5,151.19,1l-.64,0-3,.94-1,.87-1.42,2.75-.05.64.09,1.25,4,17.1c-1.91.46-3.81,1-5.65,1.64-1.44.48-2.88,1-4.29,1.62l3.12,7.46c1.24-.52,2.5-1,3.76-1.42.94-.32,1.9-.61,2.86-.88l-3.76,16.41-.09,1.24.05.64,1.42,2.75,1,.88,3,.94.41,0,2-.58,20.33-12.27,17.33-9.77a67.7,67.7,0,0,1,28.55,36.1c.57,1.69,1.07,3.43,1.5,5.16.09.35.16.71.24,1.06h0c.28,1.13.82,4.15,1,5.21l4,3.35A31.83,31.83,0,0,1,229,147.45H195.42l-.12-.12-.88-.67-15.12-8.49-23.08-13.5-1.7-.54-.64-.06-2.95,1-1,.87-1.42,2.75-.06.64.09,1.25,3.92,16.93h-3.21v8.09h3.17l-3.88,16.9-.09,1.26.06.63,1.42,2.75,1,.87,2.95.95.64-.06,1.75-.57L176.6,166,194.42,156l.57-.44h34.59A39.72,39.72,0,0,0,265.65,117H315.3ZM170.71,35,154.55,44.7,157,34l1.06-4.78a5,5,0,0,0,.12-1.08l-.11-.92-3.56-15.39,12.75,7.48L172,22l10.89,6.12ZM174,158.16l-16.16,9.71,2.47-10.69,1.05-4.77a5.06,5.06,0,0,0,.12-1.09l-.1-.92L157.85,135l12.76,7.48,4.69,2.71,10.89,6.12Z"/><rect class="cls-1" x="25.98" y="101.16" width="10.11" height="8.09"/><rect class="cls-1" x="10.82" y="101.16" width="10.11" height="8.09"/><path class="cls-1" d="M126.36,45.16,121,39.08a64.94,64.94,0,0,0-7.49,7.71l6.23,5.15A58.63,58.63,0,0,1,126.36,45.16Z"/><rect class="cls-1" x="41.15" y="101.17" width="10.11" height="8.09"/><path class="cls-1" d="M71.57,89.27l-7.1-3.88a47.42,47.42,0,0,0-4.12,10.23l7.8,2.13A39.73,39.73,0,0,1,71.57,89.27Z"/><path class="cls-1" d="M66.86,105.48c.07-1.08.19-2.18.35-3.25l-7.85-1.06h-3v8.09h6.5Z"/><path class="cls-1" d="M80.11,78.57l-5.35-6.06a48.23,48.23,0,0,0-7.37,8.2L74,85.38A39.9,39.9,0,0,1,80.11,78.57Z"/><path class="cls-1" d="M91.78,71.42l-3-7.53A47.63,47.63,0,0,0,79.1,69.1l4.62,6.64A39.33,39.33,0,0,1,91.78,71.42Z"/><path class="cls-1" d="M105,60.62a47.7,47.7,0,0,0-10.91,1.55L96.13,70a40.08,40.08,0,0,1,9.06-1.28Z"/><path class="cls-1" d="M134.33,30a65.65,65.65,0,0,0-9.12,5.7L130,42.19a57.73,57.73,0,0,1,8-5Z"/><path class="cls-1" d="M104.85,60.35l7.3,3.51a58.88,58.88,0,0,1,4.76-8.16l-6.63-4.63A67.36,67.36,0,0,0,104.85,60.35Z"/><rect class="cls-1" x="3.88" y="116.7" width="9.1" height="8.09"/><rect class="cls-1" x="31.6" y="116.7" width="9.31" height="8.09"/><rect class="cls-1" x="17.64" y="116.7" width="9.31" height="8.09"/><rect class="cls-1" x="45.56" y="116.7" width="9.31" height="8.09"/><path class="cls-1" d="M68.44,119.57l-3.87-2.87h-5v8.09h2.15c.29.78.61,1.55.94,2.31L70,123.87A41.57,41.57,0,0,1,68.44,119.57Z"/><rect class="cls-1" x="119.68" y="147.46" width="9.84" height="8.09"/><rect class="cls-1" x="134.45" y="147.46" width="9.84" height="8.09"/><path class="cls-1" d="M89.05,152.5a47.75,47.75,0,0,0,10.39,2.72l1.15-8A39.12,39.12,0,0,1,92,145Z"/><polygon class="cls-1" points="104.98 147.41 104.86 155.5 108.5 155.55 114.76 155.55 114.76 147.46 108.56 147.46 104.98 147.41"/><path class="cls-1" d="M75.28,144.25a47.69,47.69,0,0,0,8.88,6l3.76-7.16a39.52,39.52,0,0,1-7.37-5Z"/><path class="cls-1" d="M72,127.85l-7,4.05a47.54,47.54,0,0,0,6.38,8.63L77.33,135A40.27,40.27,0,0,1,72,127.85Z"/></svg>