<svg id="Layer_1" data-name="Layer 1" xmlns="http://www.w3.org/2000/svg" viewBox="0 0 305 160"><defs><style>.cls-1{fill:#814ce4;}</style></defs><title>13. Enterprise </title><path class="cls-1" d="M224.49.5A79.61,79.61,0,0,0,146.8,63.17H108.1L97.27,45.7H121.2a16.83,16.83,0,1,0,0-33.65H18.51a16.83,16.83,0,0,0,0,33.65H85.38L96.21,63.17H69.84a16.83,16.83,0,0,0,0,33.66H97.1L86.27,114.3H18.51a16.83,16.83,0,0,0,0,33.65H121.2a16.83,16.83,0,1,0,0-33.65h-23L109,96.83H146.8A79.5,79.5,0,1,0,224.49.5ZM11.79,28.87a6.72,6.72,0,0,1,6.72-6.72H121.2a6.73,6.73,0,1,1,0,13.45H18.51A6.73,6.73,0,0,1,11.79,28.87ZM127.93,131.13a6.73,6.73,0,0,1-6.73,6.72H18.51a6.73,6.73,0,0,1,0-13.45H121.2A6.74,6.74,0,0,1,127.93,131.13ZM69.84,86.73a6.73,6.73,0,0,1,0-13.46h75.45c-.18,2.22-.3,4.46-.3,6.73s.12,4.51.3,6.73ZM224.49,149.4A69.4,69.4,0,1,1,293.89,80,69.48,69.48,0,0,1,224.49,149.4Z"/><path class="cls-1" d="M224.49,30.92A49.08,49.08,0,1,0,273.57,80,49.13,49.13,0,0,0,224.49,30.92Zm0,88.06a39,39,0,1,1,39-39A39,39,0,0,1,224.49,119Z"/></svg>