<svg id="Layer_1" data-name="Layer 1" xmlns="http://www.w3.org/2000/svg" viewBox="0 0 184 180"><defs><style>.cls-1{fill:#814ce4;}</style></defs><title>14. Support </title><path class="cls-1" d="M91,60.1a14.6,14.6,0,0,0,9.52-3.54,14.38,14.38,0,0,0,4.24-15.48,14.61,14.61,0,0,0-23.36-6.34,14.37,14.37,0,0,0-4.25,15.48A14.56,14.56,0,0,0,91,60.1Zm-4.5-19.45a6.77,6.77,0,0,1,10.85,2.94A6.65,6.65,0,0,1,91,52.31a6.74,6.74,0,0,1-6.44-4.6A6.66,6.66,0,0,1,86.53,40.65Z"/><path class="cls-1" d="M47.92,60.17l4.8,2.62,6.09.87.11.2L59,64l-2.35,5.71-.17,5.44.8,2.38,3.48,4.23,13.4,7.77,5.25,1,2.49-.42,4.84-2.84,3.89-4.89H91l3.83,4.9,4.75,2.88,2.5.47,5.33-.89,13.47-7.65,3.52-4.21.82-2.35-.12-5.44-2.31-5.78c0-.09.1-.18.16-.27l6.22-.85,4.92-2.7,1.63-1.92,1.84-5,.07-15.42L135.7,33l-1.65-1.89-4.76-2.61-6.15-.92-.09-.16-.09-.16,2.35-5.71.17-5.44-.8-2.37L121.2,9.52,107.8,1.75,102.55.8l-2.49.42L95.22,4.06,91.33,9H91L87.17,4,82.42,1.16,79.92.69l-5.33.89L61.12,9.24l-3.52,4.2-.82,2.35.12,5.44L59.21,27c-.05.09-.1.18-.16.27l-6.21.85-4.93,2.7-1.63,1.92-1.84,5-.07,15.42,1.9,5.13Zm4.35-22.4,1.63-1.93,10.31-1.41A28.83,28.83,0,0,1,68,27.94l-3.84-9.59L65,16,78.48,8.34l2.5.47L87.34,17a27.25,27.25,0,0,1,3.58-.24,31.43,31.43,0,0,1,4,.27l6.46-8.1,2.49-.42,13.41,7.76.8,2.38-3.94,9.56a23.75,23.75,0,0,1,2.13,3.12,32.17,32.17,0,0,1,1.67,3.39l10.2,1.53,1.65,1.9-.07,15.41-1.63,1.93-10.31,1.41a28.94,28.94,0,0,1-3.8,6.49L117.79,73,117,75.31,103.49,83l-2.5-.47-6.36-8.15a28.93,28.93,0,0,1-3.58.23,29.68,29.68,0,0,1-4-.27l-6.46,8.11-2.49.41-13.4-7.76-.81-2.38,3.94-9.56a22.6,22.6,0,0,1-3.71-6.55L53.85,55.08,52.2,53.19Z"/><path class="cls-1" d="M179.72,111.83l-4.6-4.87a10.58,10.58,0,0,0-13.85-1.3l-41,29.65a2.73,2.73,0,0,1-1.58.51H74.77a2.68,2.68,0,1,1,0-5.35h39.42A10.5,10.5,0,0,0,124.71,120v-8.27A10.52,10.52,0,0,0,115,101.32L42.26,95.89a10.47,10.47,0,0,0-7.56,2.42L5,123.1a10.46,10.46,0,0,0-1.41,14.59l30.3,37.12a10.5,10.5,0,0,0,8.14,3.88,10.74,10.74,0,0,0,4-.76l1.58-.63a2.7,2.7,0,0,1,.84-.19l70.25-4.19a10.48,10.48,0,0,0,6-2.31l54-43.49a10.4,10.4,0,0,0,1-15.29Zm-6,9.24-54,43.49a2.69,2.69,0,0,1-1.53.59L48,169.34a10.61,10.61,0,0,0-3.29.73l-1.58.63a2.69,2.69,0,0,1-3.09-.79L9.7,132.79a2.67,2.67,0,0,1,.36-3.73l29.68-24.79a2.69,2.69,0,0,1,1.73-.63h.2l72.72,5.43a2.69,2.69,0,0,1,2.49,2.66V120a2.68,2.68,0,0,1-2.69,2.67H74.77a10.47,10.47,0,1,0,0,20.93h43.88a10.48,10.48,0,0,0,6.18-2l41-29.65a2.7,2.7,0,0,1,3.54.33l4.61,4.87a2.67,2.67,0,0,1-.27,3.91Z"/></svg>