<svg id="Layer_1" data-name="Layer 1" xmlns="http://www.w3.org/2000/svg" viewBox="0 0 40 40"><defs><style>.cls-1{fill:#fff;}</style></defs><title>18. Github</title><g id="qFrnno"><path class="cls-1" d="M23.79,29a35,35,0,0,0,4.08-1.17c2.85-1.15,4.27-3.46,4.72-6.42.35-2.26.32-4.5-1-6.46A3.2,3.2,0,0,1,31,12.44a14.2,14.2,0,0,0-.27-3.29c-.06-.59-.42-.71-1-.65a9.83,9.83,0,0,0-4.1,1.66,1.66,1.66,0,0,1-1.42.22,19.3,19.3,0,0,0-8.62,0,1.78,1.78,0,0,1-1.17-.19A11.78,11.78,0,0,0,10.25,8.5a.8.8,0,0,0-1,.69,7.9,7.9,0,0,0-.16,4,1.35,1.35,0,0,1-.18,1,9.12,9.12,0,0,0,5.22,14.33c.67.15,1.35.25,1.95.36-.32.79-.62,1.59-1,2.38a.92.92,0,0,1-.49.44,4.15,4.15,0,0,1-5.24-1.6,7.44,7.44,0,0,0-1.84-1.83,3.53,3.53,0,0,0-1.74-.36c-.44,0-.72.37-.29.65,1.61,1,2.32,2.69,3.3,4.21s2.67,1.81,4.38,1.76c.58,0,1.16-.11,1.84-.18,0,1.28.05,2.55,0,3.82,0,.71-.78,1-1.64.62a27.39,27.39,0,0,1-4.68-2.37,19.26,19.26,0,0,1-8.61-18A20.06,20.06,0,0,1,38.3,12.14,19.68,19.68,0,0,1,30.47,37a28.64,28.64,0,0,1-3.66,1.76c-1.29.54-1.86.11-1.86-1.26,0-1.63,0-3.25,0-4.87A5.26,5.26,0,0,0,23.79,29Z"/></g></svg>