<svg id="Layer_1" data-name="Layer 1" xmlns="http://www.w3.org/2000/svg" viewBox="0 0 152 100"><defs><style>.cls-1{fill:#814ce4;}</style></defs><path class="cls-1" d="M124.41,38.24A49.07,49.07,0,0,0,33.14,27.42a35.85,35.85,0,0,0-.42,71.33l.3,0,1.15.07,5.92-5.62h0V91.4A1.41,1.41,0,0,0,38.71,90H35.9a1.41,1.41,0,0,0-1.41,1.41v1.82h-.43v0l-.74,0a30.23,30.23,0,0,1,3.27-60.28h.19a43.44,43.44,0,0,1,82.94,10.6A24.92,24.92,0,0,1,122,93.22H105.91V91.4A1.41,1.41,0,0,0,104.5,90h-2.81a1.41,1.41,0,0,0-1.41,1.41v1.82h-.1l5.62,5.62H122l.53,0a30.55,30.55,0,0,0,1.85-60.58Z"/><rect class="cls-1" x="100.28" y="37.86" width="5.62" height="7.03" rx="1.41"/><rect class="cls-1" x="100.28" y="48.4" width="5.62" height="7.03" rx="1.41"/><rect class="cls-1" x="100.28" y="58.94" width="5.62" height="7.03" rx="1.41"/><rect class="cls-1" x="100.28" y="69.48" width="5.62" height="7.03" rx="1.41"/><rect class="cls-1" x="100.28" y="80.02" width="5.62" height="6.46" rx="1.41"/><rect class="cls-1" x="91.95" y="69.48" width="5.62" height="7.03" rx="1.41"/><rect class="cls-1" x="91.95" y="80.02" width="5.62" height="6.46" rx="1.41"/><rect class="cls-1" x="91.95" y="37.86" width="5.62" height="7.03" rx="1.41"/><rect class="cls-1" x="91.95" y="58.94" width="5.62" height="7.03" rx="1.41"/><rect class="cls-1" x="91.95" y="48.4" width="5.62" height="7.03" rx="1.41"/><rect class="cls-1" x="80.99" y="48.4" width="5.62" height="7.03" rx="1.41"/><rect class="cls-1" x="80.99" y="58.94" width="5.62" height="7.03" rx="1.41"/><rect class="cls-1" x="80.99" y="69.48" width="5.62" height="7.03" rx="1.41"/><rect class="cls-1" x="80.99" y="80.02" width="5.62" height="6.46" rx="1.41"/><rect class="cls-1" x="72.2" y="69.48" width="5.62" height="7.03" rx="1.41"/><rect class="cls-1" x="72.2" y="58.94" width="5.62" height="7.03" rx="1.41"/><rect class="cls-1" x="72.2" y="48.4" width="5.62" height="7.03" rx="1.41"/><rect class="cls-1" x="72.2" y="80.02" width="5.62" height="6.46" rx="1.41"/><rect class="cls-1" x="61.89" y="58.94" width="5.62" height="7.03" rx="1.41"/><rect class="cls-1" x="61.89" y="69.48" width="5.62" height="7.03" rx="1.41"/><rect class="cls-1" x="61.89" y="80.02" width="5.62" height="6.46" rx="1.41"/><rect class="cls-1" x="53.67" y="69.48" width="5.62" height="7.03" rx="1.41"/><rect class="cls-1" x="53.67" y="80.02" width="5.62" height="6.46" rx="1.41"/><rect class="cls-1" x="53.67" y="58.94" width="5.62" height="7.03" rx="1.41"/><rect class="cls-1" x="42.7" y="69.48" width="5.62" height="7.03" rx="1.41"/><rect class="cls-1" x="42.7" y="80.02" width="5.62" height="6.46" rx="1.41"/><rect class="cls-1" x="34.49" y="69.48" width="5.62" height="7.03" rx="1.41"/><rect class="cls-1" x="34.49" y="80.02" width="5.62" height="6.46" rx="1.41"/><path class="cls-1" d="M78.27,91.4A1.41,1.41,0,0,0,76.87,90H74.06a1.41,1.41,0,0,0-1.41,1.41v1.82H67.51V91.4A1.4,1.4,0,0,0,66.11,90H63.3a1.41,1.41,0,0,0-1.41,1.41v1.82h0l5.63,5.62h5.24l5.62-5.62h-.11Z"/><path class="cls-1" d="M57.88,90H55.07a1.41,1.41,0,0,0-1.4,1.41v1.82H48.32V91.4A1.41,1.41,0,0,0,46.92,90H44.1a1.41,1.41,0,0,0-1.4,1.41v1.82l5.62,5.62h5.35l5.62-5.62V91.4A1.41,1.41,0,0,0,57.88,90Z"/><path class="cls-1" d="M96.17,90H93.36A1.41,1.41,0,0,0,92,91.4v1.82H86.61V91.4A1.41,1.41,0,0,0,85.2,90H82.39A1.41,1.41,0,0,0,81,91.4v1.82l5.62,5.62H92l5.63-5.62V91.4A1.41,1.41,0,0,0,96.17,90Z"/></svg>