<svg id="Layer_1" data-name="Layer 1" xmlns="http://www.w3.org/2000/svg" viewBox="0 0 40 40"><defs><style>.cls-1{fill:#fff;}</style></defs><title>29. Slack</title><path class="cls-1" d="M9.11,24.92a4,4,0,1,1-4-4h4Z"/><path class="cls-1" d="M11.12,24.92a4,4,0,1,1,8,0v10a4,4,0,0,1-8,0Z"/><path class="cls-1" d="M15.11,8.89a4,4,0,1,1,4-4v4Z"/><path class="cls-1" d="M15.11,10.9a4,4,0,1,1,0,8h-10a4,4,0,0,1,0-8Z"/><path class="cls-1" d="M31.14,14.89a4,4,0,1,1,4,4h-4Z"/><path class="cls-1" d="M29.13,14.89a4,4,0,1,1-8,0v-10a4,4,0,1,1,8,0Z"/><path class="cls-1" d="M25.14,30.92a4,4,0,1,1-4,4v-4Z"/><path class="cls-1" d="M25.14,28.91a4,4,0,0,1,0-8h10a4,4,0,1,1,0,8Z"/></svg>