<svg id="Layer_1" data-name="Layer 1" xmlns="http://www.w3.org/2000/svg" viewBox="0 0 235 110"><defs><style>.cls-1{fill:#814ce4;}</style></defs><path class="cls-1" d="M128.94,7.52l-2.27-.93H90.3A12.29,12.29,0,0,0,78,18.88l0,72.75a12.28,12.28,0,0,0,12.25,12.3h54.61a12.31,12.31,0,0,0,12.3-12.3V37.07l-.94-2.26Zm-1.48,7.6,19.61,19.6H127.46Zm17.4,82.4H90.25a5.87,5.87,0,0,1-5.84-5.88l0-72.75A5.88,5.88,0,0,1,90.3,13h30.75V37.93l3.21,3.21h26.48V91.63A5.89,5.89,0,0,1,144.86,97.52Z"/><path class="cls-1" d="M193.47,86.2a1.61,1.61,0,0,0-1.14-.47h-25.4a1.61,1.61,0,0,0-1.61,1.6v3.21a1.6,1.6,0,0,0,1.61,1.6h21.26a1.61,1.61,0,0,1,1.6,1.61v12.41a1.6,1.6,0,0,0,1.6,1.6h3.21a1.6,1.6,0,0,0,1.6-1.6V89.6a1.56,1.56,0,0,0-.47-1.13Z"/><path class="cls-1" d="M166.93,24.79h25.4a1.61,1.61,0,0,0,1.14-.47l2.26-2.27a1.56,1.56,0,0,0,.47-1.13V4.36a1.6,1.6,0,0,0-1.6-1.6h-3.21a1.6,1.6,0,0,0-1.6,1.6V16.77a1.61,1.61,0,0,1-1.6,1.61H166.93a1.6,1.6,0,0,0-1.61,1.6v3.21A1.61,1.61,0,0,0,166.93,24.79Z"/><rect class="cls-1" x="165.32" y="74.5" width="8.02" height="6.41" rx="1.6"/><rect class="cls-1" x="177.35" y="74.5" width="8.02" height="6.41" rx="1.6"/><rect class="cls-1" x="201.4" y="74.5" width="8.02" height="6.41" rx="1.6"/><rect class="cls-1" x="189.38" y="74.5" width="8.02" height="6.41" rx="1.6"/><rect class="cls-1" x="165.32" y="63.28" width="59.44" height="6.41" rx="1.6"/><rect class="cls-1" x="165.32" y="40.83" width="59.44" height="6.41" rx="1.6"/><rect class="cls-1" x="165.32" y="29.6" width="8.02" height="6.41" rx="1.6"/><rect class="cls-1" x="177.35" y="29.6" width="8.02" height="6.41" rx="1.6"/><rect class="cls-1" x="189.38" y="29.6" width="8.02" height="6.41" rx="1.6"/><rect class="cls-1" x="201.4" y="29.6" width="8.02" height="6.41" rx="1.6"/><rect class="cls-1" x="212.59" y="52.05" width="8.02" height="6.41" rx="1.6"/><rect class="cls-1" x="176.51" y="52.05" width="8.02" height="6.41" rx="1.6"/><rect class="cls-1" x="224.62" y="52.05" width="8.02" height="6.41" rx="1.6"/><rect class="cls-1" x="165.13" y="52.05" width="7.37" height="6.41" rx="1.6"/><rect class="cls-1" x="200.56" y="52.05" width="8.02" height="6.41" rx="1.6"/><rect class="cls-1" x="188.54" y="52.05" width="8.02" height="6.41" rx="1.6"/><path class="cls-1" d="M42.08,24.32a1.61,1.61,0,0,0,1.13.47H68.62a1.6,1.6,0,0,0,1.6-1.6V20a1.6,1.6,0,0,0-1.6-1.6H47.36a1.61,1.61,0,0,1-1.61-1.61V4.36a1.6,1.6,0,0,0-1.6-1.6H40.94a1.6,1.6,0,0,0-1.6,1.6V20.92a1.61,1.61,0,0,0,.47,1.13Z"/><path class="cls-1" d="M68.62,85.73H43.21a1.61,1.61,0,0,0-1.13.47l-2.27,2.27a1.61,1.61,0,0,0-.47,1.13v16.56a1.6,1.6,0,0,0,1.6,1.6h3.21a1.6,1.6,0,0,0,1.6-1.6V93.75a1.61,1.61,0,0,1,1.61-1.61H68.62a1.6,1.6,0,0,0,1.6-1.6V87.33A1.6,1.6,0,0,0,68.62,85.73Z"/><rect class="cls-1" x="62.2" y="29.6" width="8.02" height="6.41" rx="1.6"/><rect class="cls-1" x="50.18" y="29.6" width="8.02" height="6.41" rx="1.6"/><rect class="cls-1" x="38.15" y="29.6" width="8.02" height="6.41" rx="1.6"/><rect class="cls-1" x="26.12" y="29.6" width="8.02" height="6.41" rx="1.6"/><rect class="cls-1" x="10.78" y="40.83" width="59.44" height="6.41" rx="1.6"/><rect class="cls-1" x="10.78" y="63.28" width="59.44" height="6.41" rx="1.6"/><rect class="cls-1" x="38.15" y="74.5" width="8.02" height="6.41" rx="1.6"/><rect class="cls-1" x="26.12" y="74.5" width="8.02" height="6.41" rx="1.6"/><rect class="cls-1" x="50.18" y="74.5" width="8.02" height="6.41" rx="1.6"/><rect class="cls-1" x="62.2" y="74.5" width="8.02" height="6.41" rx="1.6"/><rect class="cls-1" x="38.99" y="52.05" width="8.02" height="6.41" rx="1.6"/><rect class="cls-1" x="2.91" y="52.05" width="8.02" height="6.41" rx="1.6"/><rect class="cls-1" x="63.04" y="52.05" width="7.37" height="6.41" rx="1.6"/><rect class="cls-1" x="51.02" y="52.05" width="8.02" height="6.41" rx="1.6"/><rect class="cls-1" x="14.94" y="52.05" width="8.02" height="6.41" rx="1.6"/><rect class="cls-1" x="26.96" y="52.05" width="8.02" height="6.41" rx="1.6"/></svg>