<svg id="Layer_1" data-name="Layer 1" xmlns="http://www.w3.org/2000/svg" viewBox="0 0 175 110"><defs><style>.cls-1{fill:#814ce4;}</style></defs><path class="cls-1" d="M94.43,25.8l-.34-5.5c-3.7.22-7.66.27-11.46.15L82.46,26c1.38.05,2.81.07,4.22.07C89.3,26,91.91,26,94.43,25.8Z"/><path class="cls-1" d="M109.19,18.08A67.39,67.39,0,0,1,98.11,20l.54,5.49a74.25,74.25,0,0,0,12-2.07Z"/><path class="cls-1" d="M78.6,20.25a86.44,86.44,0,0,1-11.26-1.42l-1.09,5.41a93.55,93.55,0,0,0,12,1.52Z"/><path class="cls-1" d="M75.24,93.07l-.54-5.49a73.91,73.91,0,0,0-12,2.07L64.17,95A67.07,67.07,0,0,1,75.24,93.07Z"/><path class="cls-1" d="M90.72,92.6l.18-5.51c-4-.13-8.1-.08-12,.16l.33,5.5C83,92.53,86.92,92.48,90.72,92.6Z"/><path class="cls-1" d="M107.11,88.81a92,92,0,0,0-12-1.52l-.36,5.5A89.62,89.62,0,0,1,106,94.21Z"/><path class="cls-1" d="M21.06,73.94l-1.88,1.88v2l2.58,2.59.09.07,2.44,2.08,0,.19-2.57.12c-1.23.05-2.36.05-3.41,0a16.2,16.2,0,0,1-3-.36,10.3,10.3,0,0,1-2.74-1.06,11.61,11.61,0,0,1-2.56-2,11.37,11.37,0,0,1-2.63-3.93,11,11,0,0,1-.75-4.39,11.61,11.61,0,0,1,1.07-4.44,13.94,13.94,0,0,1,2.88-4.06,12.75,12.75,0,0,1,4.1-2.8,12.22,12.22,0,0,1,2.07-.68l1-1.33V54.46l-1-1.33a12.22,12.22,0,0,1-2.07-.68,12.75,12.75,0,0,1-4.1-2.8,13.94,13.94,0,0,1-2.88-4.06,11.61,11.61,0,0,1-1.07-4.45,10.94,10.94,0,0,1,.75-4.38A11.37,11.37,0,0,1,10,32.83a12,12,0,0,1,2.56-2,10.63,10.63,0,0,1,2.74-1,14.67,14.67,0,0,1,3-.36c1,0,2.18,0,3.41,0l2.57.12,0,.19-2.44,2.08-.09.07L19.18,34.5v2l1.88,1.88h2L33.52,27.82V25.87L23,15.37h-2l-1.88,1.88V19.2l2.58,2.59.09.08L24.34,24l0,.19L22,24.05c-1.28-.1-2.59-.17-3.91-.19a18.57,18.57,0,0,0-4,.36,15.62,15.62,0,0,0-8.22,4.51,16,16,0,0,0-3.8,5.82,16.19,16.19,0,0,0-1,6.52,17.69,17.69,0,0,0,1.6,6.51,19.92,19.92,0,0,0,4.1,5.86,19.66,19.66,0,0,0,3.35,2.69,20.23,20.23,0,0,0-3.35,2.7,19.92,19.92,0,0,0-4.1,5.86A17.64,17.64,0,0,0,1,71.2a16.19,16.19,0,0,0,1,6.52,16,16,0,0,0,3.8,5.82,15.62,15.62,0,0,0,8.22,4.51,19.9,19.9,0,0,0,4,.36c1.32,0,2.63-.09,3.91-.19l2.26-.12,0,.19L21.85,90.4l-.09.08-2.58,2.59v2l1.88,1.88h2L33.52,86.4v-2L23,73.94Z"/><path class="cls-1" d="M170.71,64.69a20.39,20.39,0,0,0-7.45-8.56,19.28,19.28,0,0,0,3.35-2.69,19.74,19.74,0,0,0,4.1-5.86,17.7,17.7,0,0,0,1.61-6.51,16.37,16.37,0,0,0-1-6.52,16.08,16.08,0,0,0-3.79-5.82,15.72,15.72,0,0,0-8.22-4.51,18.68,18.68,0,0,0-4-.36c-1.33,0-2.63.09-3.91.19l-2.27.12,0-.19,2.49-2.11.08-.08,2.59-2.59V17.25l-1.89-1.88h-1.95l-10.5,10.5v1.95l10.5,10.51h1.95l1.89-1.88v-2l-2.59-2.59-.08-.07-2.45-2.08,0-.19,2.56-.12c1.23-.05,2.37-.05,3.41,0a14.77,14.77,0,0,1,3,.36,10.42,10.42,0,0,1,2.73,1,12,12,0,0,1,2.57,2A11.37,11.37,0,0,1,166,36.76a10.93,10.93,0,0,1,.74,4.38,11.43,11.43,0,0,1-1.07,4.45,13.94,13.94,0,0,1-2.88,4.06,12.81,12.81,0,0,1-4.09,2.8,12.62,12.62,0,0,1-2.08.68l-1,1.33v3.35l1,1.33a12.62,12.62,0,0,1,2.08.68,12.81,12.81,0,0,1,4.09,2.8,13.94,13.94,0,0,1,2.88,4.06,11.43,11.43,0,0,1,1.07,4.44,11,11,0,0,1-.74,4.39,11.37,11.37,0,0,1-2.63,3.93,11.66,11.66,0,0,1-2.57,2,10.11,10.11,0,0,1-2.73,1.06,16.31,16.31,0,0,1-3,.36c-1,0-2.18,0-3.41,0l-2.56-.12,0-.19,2.45-2.08.08-.07,2.59-2.59v-2l-1.89-1.88h-1.95l-10.5,10.51v2l10.5,10.5h1.95L154.18,95v-2l-2.59-2.59-.08-.08L149,88.29l0-.19,2.27.12c1.28.1,2.58.16,3.91.19a20,20,0,0,0,4-.36,16.77,16.77,0,0,0,12-10.33,16.37,16.37,0,0,0,1-6.52A17.66,17.66,0,0,0,170.71,64.69Z"/><path class="cls-1" d="M47.65,28a19.88,19.88,0,0,1,3.52-11.32A24.13,24.13,0,0,0,62,23.2l1.56-5.29a18.4,18.4,0,0,1-3.88-1.56l-.12-.07a17,17,0,0,1-4.63-3.59l0,0a20,20,0,0,1,3.38-2.28c4.48-2.66,15.5-4.55,28.41-4.55s23.92,1.89,28.41,4.55a19.31,19.31,0,0,1,3.37,2.27l0,0a17.2,17.2,0,0,1-4.64,3.59l-.12.07a10,10,0,0,1-1,.51l2.28,5a15.66,15.66,0,0,0,1.48-.76,22.79,22.79,0,0,0,5.74-4.4A19.88,19.88,0,0,1,125.71,28V49.13l5.51,0V28A25.48,25.48,0,0,0,117.79,5.57C111.14,1.69,97.38.3,86.68.3S62.21,1.69,55.57,5.57A25.48,25.48,0,0,0,42.13,28V49.49l5.52,0Z"/><path class="cls-1" d="M125.71,80.76a19.88,19.88,0,0,1-5.49,13.74,22.67,22.67,0,0,0-3.78-2.57,23.22,23.22,0,0,0-5.08-2.08l-1.57,5.29a17.5,17.5,0,0,1,3.89,1.56l.11.07a17.25,17.25,0,0,1,2,1.26,19.94,19.94,0,0,1-6.58,2.42,95.5,95.5,0,0,1-22.53,2.34,95.6,95.6,0,0,1-22.54-2.34A19.8,19.8,0,0,1,57.57,98a18,18,0,0,1,2-1.26l.12-.07c.29-.17.62-.34,1-.52l-2.29-5a15.44,15.44,0,0,0-1.47.76,22.35,22.35,0,0,0-3.79,2.57,19.87,19.87,0,0,1-5.48-13.74V65.93l-5.52,0V80.76A25.49,25.49,0,0,0,63,105.84a101.32,101.32,0,0,0,23.72,2.46,101.29,101.29,0,0,0,23.71-2.46,25.49,25.49,0,0,0,20.83-25.08V65.56l-5.51,0Z"/><path class="cls-1" d="M56.78,55.89v2.75L58.16,60h9l1.38-1.38V55.89l-1.38-1.38h-9Z"/><path class="cls-1" d="M84.35,58.64V55.89L83,54.51H74l-1.37,1.38v2.75L74,60h9Z"/><path class="cls-1" d="M26.46,54.51l-1.38,1.38v2.75L26.46,60h9c.53-.54.84-.84,1.38-1.38V55.89l-1.38-1.38Z"/><path class="cls-1" d="M121.57,54.51l-1.38,1.38v2.75L121.57,60h9l1.38-1.38V55.89l-1.38-1.38Z"/><path class="cls-1" d="M147.76,58.64V55.89l-1.38-1.38h-9l-1.37,1.38v2.75L137.42,60h9Z"/><path class="cls-1" d="M51.27,60l1.38-1.38V55.89l-1.38-1.38h-9l-1.38,1.38v2.75L42.31,60Z"/><path class="cls-1" d="M116.06,58.64V55.89l-1.38-1.38h-9l-1.38,1.38v2.75L105.72,60h9Z"/><path class="cls-1" d="M100.2,58.64V55.89l-1.37-1.38h-9l-1.38,1.38v2.75L89.87,60h9Z"/></svg>