<svg id="Layer_1" data-name="Layer 1" xmlns="http://www.w3.org/2000/svg" viewBox="0 0 200 180"><defs><style>.cls-1{fill:#814ce4;}</style></defs><path class="cls-1" d="M195.69,62.49l-2.41-3.9-3.15-.74L155.72,79.11c0,.19-.08.35-.12.52H41.32c0-.17-.07-.33-.12-.52L6.8,57.85l-3.16.74-2.4,3.9L2,65.64,36.16,86.76v88.41l4.58,4.58H156.18l4.58-4.58V86.76L195,65.64ZM151.6,170.59H45.32V88.79H151.6Z"/><path class="cls-1" d="M117.52,129.2l4.58-4.58V108l-4.58-4.58H79.4L74.82,108v16.61l4.58,4.58ZM84,112.59h29V120H84Z"/><path class="cls-1" d="M101.07,32.67c.89-.9,1.39-1.4,2.29-2.29V4l-2.29-2.29H96.49L94.2,4V30.38l2.29,2.29Z"/><path class="cls-1" d="M118.88,41.92l18.63-18.63V20.05l-3.24-3.24H131L112.41,35.44v3.24l3.23,3.24Z"/><path class="cls-1" d="M121.32,52.93v4.58l2.29,2.29H150l2.29-2.29V52.93L150,50.64H123.61C122.72,51.54,122.22,52,121.32,52.93Z"/><path class="cls-1" d="M73.32,59.8l2.29-2.29V52.93c-.9-.89-1.4-1.39-2.29-2.29H47l-2.29,2.29v4.58L47,59.8Z"/><path class="cls-1" d="M78.67,41.92h3.24l3.24-3.24V35.44L66.53,16.81H63.29l-3.24,3.24v3.24Z"/></svg>