<svg xmlns="http://www.w3.org/2000/svg" viewBox="29.67 27.73 99.26 101.96"><defs><style>g{fill:white},.cls-1{isolation:isolate;}.cls-2,.cls-3,.cls-4{fill:none;stroke:#fff;stroke-linejoin:bevel;}.cls-2{stroke-width:2.5px;}.cls-3,.cls-4{stroke-width:1.5px;}.cls-4{mix-blend-mode:darken;}</style></defs><title>Artboard 1</title><g class="cls-1"><g id="Layer_1" data-name="Layer 1"><polygon class="cls-2" points="41.83 47.82 30.67 80.15 42.9 112.09 72.8 128.69 106.38 122.19 127.93 95.63 127.36 61.43 104.94 35.6 71.16 30.23 41.83 47.82"/><polygon class="cls-3" points="81.97 43.92 52.19 57.23 44.03 88.8 63.62 114.87 96.22 115.81 117.28 90.9 110.94 58.91 81.97 43.92"/><polygon class="cls-4" points="68.57 60.42 57.6 86.19 78.73 104.59 102.75 90.18 96.47 62.88 68.57 60.42"/><path d="M57.6,86.19,54.52,71.78C54,69.37,53.47,67,53,64.56L51.7,57.32l.59-.58,16.38,3.19-.48.18,13.4-16.49v.64c-.95-1.11-1.92-2.21-2.81-3.37l-2.73-3.44-5.44-6.89L76.53,37l2.95,3.25c1,1.07,1.93,2.2,2.87,3.31v.64L69,60.73l-.48.18L52.1,57.72l.59-.58L54,64.37c.48,2.41.82,4.84,1.23,7.26Z"/><path d="M43.76,113.09c-.16-2-.25-4.05-.37-6.08-.1-1,0-2,0-3l0-3,.13-12.15.21.41-6.54-4.71-3.27-2.35a4.41,4.41,0,0,1-.77-.65l-.74-.7c-.49-.46-1-.93-1.46-1.42.61.3,1.21.62,1.81.94l.9.48a4.4,4.4,0,0,1,.86.53l3.27,2.36,6.54,4.71.21.41L44.39,101l0,3c0,1,0,2-.09,3C44.1,109,44,111.07,43.76,113.09Z"/><path d="M117.28,90.9c1.48-5,3-9.93,4.57-14.9l5-14.73.4.66-16.42-2.52-.41-.37-6-23.31.65.35L92.34,40.7c-1.07.37-2.12.8-3.2,1.15l-3.25,1-6.5,2,6.27-2.63,3.14-1.3c1.05-.42,2.13-.77,3.19-1.17l12.77-4.63.65.35,6,23.31-.41-.37,16.42,2.52.4.66-5,14.73C121,81.19,119.15,86.06,117.28,90.9Z"/><path d="M106.38,122.19c-1.76-1-3.51-1.94-5.26-2.92l-2.62-1.47c-.88-.47-1.7-1.06-2.55-1.58l-.22-.55,6.53-25.63.51-.38,14.52.72.18,0,2.66,1.18,1.33.59a10.73,10.73,0,0,1,1.32.62c1.71.93,3.44,1.83,5.14,2.79-1.85-.62-3.68-1.29-5.52-1.94a10.7,10.7,0,0,1-1.34-.56l-1.33-.59-2.66-1.18.18,0-14.53-.72.51-.38L96.7,115.93l-.22-.55c.84.55,1.72,1,2.53,1.62l2.46,1.72C103.12,119.87,104.76,121,106.38,122.19Z"/><path d="M72.8,128.69c-1.67-2.21-3.29-4.45-4.94-6.68l-1.23-1.68c-.4-.56-.76-1.16-1.14-1.73l-2.3-3.46.14-.69,15.11-10.28H79l8.74,5.61,4.38,2.8c1.4,1,2.75,2.13,4.1,3.23-1.57-.76-3.13-1.54-4.65-2.38l-4.37-2.81L78.46,105H79L63.9,115.28l.14-.69,2.3,3.46c.38.58.79,1.14,1.15,1.73l1.07,1.78C70,123.93,71.41,126.3,72.8,128.69Z"/><path d="M57.6,86.19c-1.1.38-2.21.71-3.32,1.06-.28.08-.55.18-.83.25s-.57.09-.85.15l-1.7.33-6.79,1.3.11-.95,17.35,7.89,8.68,3.95c1.47.6,2.84,1.43,4.26,2.15s2.81,1.49,4.21,2.25c-1.5-.55-3-1.12-4.46-1.7s-3-1.08-4.42-1.8l-8.68-3.95L43.82,89.25l.11-.95L50.72,87l1.7-.33c.28,0,.56-.13.85-.17s.58,0,.87-.07C55.29,86.35,56.44,86.24,57.6,86.19Z"/><path d="M117.28,90.9c-1-1.09-1.92-2.2-2.86-3.31a40.53,40.53,0,0,1-2.74-3.4l-5.2-7-10.4-14,.27-.78,7.23-2a29.55,29.55,0,0,1,3.65-.88c1.24-.21,2.47-.44,3.72-.62-1.17.48-2.34.91-3.51,1.36a29.51,29.51,0,0,1-3.59,1.1l-7.23,2,.27-.78,10.4,14,5.2,7a40.65,40.65,0,0,1,2.46,3.61C115.72,88.43,116.51,89.66,117.28,90.9Z"/><polygon points="51.86 57.6 41.83 47.82 52.53 56.85 51.86 57.6"/></g></g></svg>
