<svg xmlns="http://www.w3.org/2000/svg" viewBox="0 0 360 158.74"><defs><style>.cls-1{isolation:isolate;}.cls-2{fill:#fff;}.cls-3,.cls-4,.cls-5{fill:none;stroke:#fff;stroke-linejoin:bevel;}.cls-3{stroke-width:2.5px;}.cls-4,.cls-5{stroke-width:1.5px;}.cls-5{mix-blend-mode:darken;}</style></defs><title>Artboard 2</title><g class="cls-1"><g id="Layer_1" data-name="Layer 1"><path class="cls-2" d="M162.42,70.73a6.66,6.66,0,0,0-.7-3.1,6.4,6.4,0,0,0-1.89-2.23,8.87,8.87,0,0,0-2.74-1.35,11.31,11.31,0,0,0-3.26-.46A10.25,10.25,0,0,0,151,64a8.34,8.34,0,0,0-2.41,1.11,5.51,5.51,0,0,0-1.68,1.78,4.76,4.76,0,0,0-.62,2.46v.31a5,5,0,0,0,.62,2.56A5.26,5.26,0,0,0,148.74,74a11.47,11.47,0,0,0,3,1.24,36.86,36.86,0,0,0,4.24.85q5.69.88,8.38,3.34a8.51,8.51,0,0,1,2.69,6.6v.62a11.05,11.05,0,0,1-.8,4.27,9,9,0,0,1-2.38,3.34A11.12,11.12,0,0,1,160,96.45a17,17,0,0,1-5.38.78,17.23,17.23,0,0,1-6.13-1A12.41,12.41,0,0,1,144,93.42a12,12,0,0,1-2.72-4.19,14.41,14.41,0,0,1-.93-5.25V82.43h4.35v1.24q0,4.76,2.61,7.14a10.39,10.39,0,0,0,7.27,2.38q4,0,6.08-1.78a6,6,0,0,0,2-4.73v-.31a5,5,0,0,0-2.1-4.35q-2.09-1.5-6.8-2.17a25.76,25.76,0,0,1-4.94-1.11,12.68,12.68,0,0,1-3.75-2,8.25,8.25,0,0,1-2.38-2.92,9.15,9.15,0,0,1-.83-4v-.62a8.54,8.54,0,0,1,.88-3.88,9.25,9.25,0,0,1,2.46-3.05,11.25,11.25,0,0,1,3.78-2,17.23,17.23,0,0,1,10.3.18,12.5,12.5,0,0,1,4.06,2.35,9.75,9.75,0,0,1,2.51,3.47,10.49,10.49,0,0,1,.85,4.17V72.6h-4.35Z"/><path class="cls-2" d="M176.19,106.85h-4v-36h4v4h.62a8.87,8.87,0,0,1,3.73-3.55,11.21,11.21,0,0,1,5.17-1.22,11.63,11.63,0,0,1,4.5.88A11.27,11.27,0,0,1,194,73.53a12,12,0,0,1,2.59,4.09,15,15,0,0,1,1,5.54v1a15.53,15.53,0,0,1-.93,5.59A11.71,11.71,0,0,1,194,93.86a10.83,10.83,0,0,1-3.8,2.51,12.48,12.48,0,0,1-4.6.85,11.82,11.82,0,0,1-2.54-.28,10.21,10.21,0,0,1-2.46-.88,10.65,10.65,0,0,1-2.15-1.45,7.69,7.69,0,0,1-1.65-2h-.62Zm8.59-13.45a8.76,8.76,0,0,0,3.41-.65,8.13,8.13,0,0,0,2.72-1.84,8.29,8.29,0,0,0,1.81-2.9,10.71,10.71,0,0,0,.65-3.83v-1a10.35,10.35,0,0,0-.65-3.75,8.61,8.61,0,0,0-1.81-2.9,8.23,8.23,0,0,0-2.74-1.89,8.57,8.57,0,0,0-3.39-.67,8.1,8.1,0,0,0-3.36.7,8.43,8.43,0,0,0-2.72,1.94,9.09,9.09,0,0,0-1.84,3,10.41,10.41,0,0,0-.67,3.8V84a10.54,10.54,0,0,0,.67,3.85,9.07,9.07,0,0,0,1.84,3,8.09,8.09,0,0,0,2.72,1.91A8.37,8.37,0,0,0,184.77,93.4Z"/><path class="cls-2" d="M206.56,84.91a9.11,9.11,0,0,0,2.38,6.16,8.19,8.19,0,0,0,6.21,2.33A10.75,10.75,0,0,0,218.3,93a7.36,7.36,0,0,0,2.3-1.14,6.2,6.2,0,0,0,1.55-1.68,9.52,9.52,0,0,0,1-2l3.83,1a11.34,11.34,0,0,1-4,5.82A12.61,12.61,0,0,1,215,97.22a13,13,0,0,1-5-1,11.34,11.34,0,0,1-4-2.72,12.59,12.59,0,0,1-2.59-4.19,14.91,14.91,0,0,1-.93-5.38V82.74a13.06,13.06,0,0,1,1-5,11.94,11.94,0,0,1,2.66-4,12.51,12.51,0,0,1,4-2.64,12.88,12.88,0,0,1,5-1,12,12,0,0,1,5.46,1.16,12.19,12.19,0,0,1,3.78,2.87,11.88,11.88,0,0,1,2.87,7.45v3.31Zm8.59-11a9.13,9.13,0,0,0-3.18.54,8,8,0,0,0-4.4,3.83,8.49,8.49,0,0,0-.9,2.87h16.56a7.36,7.36,0,0,0-2.61-5.28,8.39,8.39,0,0,0-2.54-1.45A8.51,8.51,0,0,0,215.15,73.94Z"/><path class="cls-2" d="M236.31,84.91a9.1,9.1,0,0,0,2.38,6.16,8.18,8.18,0,0,0,6.21,2.33,10.75,10.75,0,0,0,3.16-.41,7.36,7.36,0,0,0,2.3-1.14,6.21,6.21,0,0,0,1.55-1.68,9.64,9.64,0,0,0,1-2l3.83,1a11.33,11.33,0,0,1-4,5.82,12.62,12.62,0,0,1-7.89,2.25,13,13,0,0,1-5-1,11.35,11.35,0,0,1-4-2.72,12.63,12.63,0,0,1-2.59-4.19,15,15,0,0,1-.93-5.38V82.74a13.07,13.07,0,0,1,1-5,11.9,11.9,0,0,1,2.66-4,12.48,12.48,0,0,1,4-2.64,12.87,12.87,0,0,1,5-1,12,12,0,0,1,5.46,1.16,12.16,12.16,0,0,1,3.78,2.87A11.9,11.9,0,0,1,257,81.6v3.31Zm8.59-11a9.13,9.13,0,0,0-3.18.54,8,8,0,0,0-4.4,3.83,8.44,8.44,0,0,0-.91,2.87H253a7.43,7.43,0,0,0-.8-3,7.33,7.33,0,0,0-1.81-2.28,8.38,8.38,0,0,0-2.53-1.45A8.53,8.53,0,0,0,244.9,73.94Z"/><path class="cls-2" d="M283.34,92.57h-.62a7.44,7.44,0,0,1-1.58,2.07,9.28,9.28,0,0,1-2.07,1.45,10.13,10.13,0,0,1-2.35.85,10.69,10.69,0,0,1-2.38.28,13,13,0,0,1-4.81-.88A11.33,11.33,0,0,1,263,89.7a15.36,15.36,0,0,1-1-5.61v-.83a14.86,14.86,0,0,1,1-5.56,12.31,12.31,0,0,1,2.64-4.14A11.11,11.11,0,0,1,269.53,71a12.69,12.69,0,0,1,4.71-.88,10.81,10.81,0,0,1,4.94,1.16,8,8,0,0,1,3.54,3.6h.62V60.28h4V96.5h-4Zm-8.59.83a8.36,8.36,0,0,0,3.36-.67,8.1,8.1,0,0,0,2.72-1.91,9.15,9.15,0,0,0,1.84-3,10.59,10.59,0,0,0,.67-3.85v-.62a10.46,10.46,0,0,0-.67-3.8,9.18,9.18,0,0,0-1.84-3,8.36,8.36,0,0,0-2.74-1.94,8.15,8.15,0,0,0-3.34-.7,8.56,8.56,0,0,0-3.39.67,8,8,0,0,0-2.74,1.91,8.85,8.85,0,0,0-1.81,2.95,10.61,10.61,0,0,0-.65,3.78v.83a10.91,10.91,0,0,0,.65,3.88,8.54,8.54,0,0,0,1.81,2.92,7.94,7.94,0,0,0,2.72,1.86A8.78,8.78,0,0,0,274.75,93.4Z"/><path class="cls-2" d="M298.74,96.5a4.42,4.42,0,0,1-3.24-1.09,3.9,3.9,0,0,1-1.1-2.9V60.28h3.93V93.35h5.45V96.5Z"/><path class="cls-2" d="M309.82,84.91a9.1,9.1,0,0,0,2.38,6.16,8.18,8.18,0,0,0,6.21,2.33,10.75,10.75,0,0,0,3.16-.41,7.36,7.36,0,0,0,2.3-1.14,6.21,6.21,0,0,0,1.55-1.68,9.64,9.64,0,0,0,1-2l3.83,1a11.33,11.33,0,0,1-4,5.82,12.62,12.62,0,0,1-7.89,2.25,13,13,0,0,1-5-1,11.35,11.35,0,0,1-4-2.72,12.63,12.63,0,0,1-2.59-4.19,15,15,0,0,1-.93-5.38V82.74a13.07,13.07,0,0,1,1-5,11.9,11.9,0,0,1,2.66-4,12.48,12.48,0,0,1,4-2.64,12.87,12.87,0,0,1,5-1,12,12,0,0,1,5.46,1.16,12.16,12.16,0,0,1,3.78,2.87,11.9,11.9,0,0,1,2.87,7.45v3.31Zm8.59-11a9.13,9.13,0,0,0-3.18.54,8,8,0,0,0-4.4,3.83,8.44,8.44,0,0,0-.91,2.87h16.56a7.43,7.43,0,0,0-.8-3,7.33,7.33,0,0,0-1.81-2.28,8.38,8.38,0,0,0-2.53-1.45A8.53,8.53,0,0,0,318.4,73.94Z"/><polygon class="cls-3" points="41.83 47.82 30.67 80.15 42.9 112.09 72.8 128.69 106.38 122.19 127.93 95.63 127.36 61.43 104.94 35.6 71.16 30.23 41.83 47.82"/><polygon class="cls-4" points="81.97 43.92 52.19 57.23 44.03 88.8 63.62 114.87 96.22 115.81 117.28 90.9 110.94 58.91 81.97 43.92"/><polygon class="cls-5" points="68.57 60.42 57.6 86.19 78.73 104.59 102.75 90.18 96.47 62.88 68.57 60.42"/><path class="cls-2" d="M57.6,86.19,54.52,71.78C54,69.37,53.47,67,53,64.56L51.7,57.32l.59-.58,16.38,3.19-.48.18,13.4-16.49v.64c-.95-1.11-1.92-2.21-2.81-3.37l-2.73-3.44-5.44-6.89L76.53,37l2.95,3.25c1,1.07,1.93,2.2,2.87,3.31v.64L69,60.73l-.48.18L52.1,57.72l.59-.58L54,64.37c.48,2.41.82,4.84,1.23,7.26Z"/><path class="cls-2" d="M43.76,113.09c-.16-2-.25-4.05-.37-6.08-.1-1,0-2,0-3l0-3,.13-12.15.21.41-6.54-4.71-3.27-2.35a4.41,4.41,0,0,1-.77-.65l-.74-.7c-.49-.46-1-.93-1.46-1.42.61.3,1.21.62,1.81.94l.9.48a4.41,4.41,0,0,1,.86.53l3.27,2.36,6.54,4.71.21.41L44.39,101l0,3c0,1,0,2-.09,3C44.1,109,44,111.07,43.76,113.09Z"/><path class="cls-2" d="M117.28,90.9c1.48-5,3-9.93,4.57-14.9l5-14.73.4.66-16.42-2.52-.41-.37-6-23.31.65.35L92.34,40.7c-1.07.37-2.12.8-3.2,1.15l-3.25,1-6.5,2,6.27-2.63,3.14-1.3c1.05-.42,2.13-.77,3.19-1.17l12.77-4.63.65.35,6,23.31-.41-.37,16.42,2.52.4.66-5,14.73C121,81.19,119.15,86.06,117.28,90.9Z"/><path class="cls-2" d="M106.38,122.19c-1.76-1-3.51-1.94-5.26-2.92l-2.62-1.47c-.88-.47-1.7-1.06-2.55-1.58l-.22-.55,6.53-25.63.51-.38,14.53.72.18,0,2.66,1.18,1.33.59a10.72,10.72,0,0,1,1.32.62c1.71.93,3.44,1.83,5.14,2.79-1.85-.62-3.68-1.29-5.52-1.94a10.76,10.76,0,0,1-1.34-.56l-1.33-.59-2.66-1.18.18,0-14.53-.72.51-.38L96.7,115.93l-.22-.55c.84.55,1.72,1,2.53,1.62l2.46,1.72C103.12,119.87,104.76,121,106.38,122.19Z"/><path class="cls-2" d="M72.8,128.69c-1.67-2.21-3.29-4.45-4.94-6.68l-1.23-1.68c-.4-.56-.76-1.16-1.14-1.73l-2.3-3.46.14-.69,15.11-10.28H79l8.74,5.61,4.38,2.8c1.4,1,2.75,2.13,4.1,3.23-1.57-.76-3.13-1.54-4.65-2.38l-4.37-2.81L78.46,105H79L63.9,115.28l.14-.69,2.3,3.46c.38.58.79,1.14,1.15,1.73l1.07,1.78C70,123.93,71.41,126.3,72.8,128.69Z"/><path class="cls-2" d="M57.6,86.19c-1.1.38-2.21.71-3.32,1.06-.28.08-.55.18-.83.25s-.57.09-.85.15l-1.7.33-6.79,1.3.11-.95,17.35,7.89,8.68,3.95c1.47.6,2.84,1.43,4.26,2.15s2.81,1.49,4.21,2.25c-1.5-.55-3-1.12-4.46-1.7s-3-1.08-4.42-1.8l-8.68-3.95L43.82,89.25l.11-.95L50.72,87l1.7-.33c.28,0,.56-.13.85-.17s.58,0,.87-.07C55.29,86.35,56.44,86.24,57.6,86.19Z"/><path class="cls-2" d="M117.28,90.9c-1-1.09-1.92-2.2-2.86-3.31a40.53,40.53,0,0,1-2.74-3.4l-5.2-7-10.4-14,.27-.78,7.23-2a29.55,29.55,0,0,1,3.65-.88c1.24-.21,2.47-.44,3.72-.62-1.16.48-2.34.91-3.51,1.36a29.55,29.55,0,0,1-3.59,1.1l-7.23,2,.27-.78,10.4,14,5.2,7a40.56,40.56,0,0,1,2.46,3.61C115.72,88.43,116.51,89.66,117.28,90.9Z"/><polygon class="cls-2" points="51.86 57.6 41.83 47.82 52.53 56.85 51.86 57.6"/></g></g></svg>