<svg id="Layer_1" data-name="Layer 1" xmlns="http://www.w3.org/2000/svg" viewBox="0 0 190 180"><defs><style>.cls-1{fill:#814ce4;}</style></defs><title>15. Tour</title><path class="cls-1" d="M155.5,70.3,152.3,69H52.5L48,73.51v58.88l4.52,4.54H84V179h9V136.93H152.3l3.2-1.33,29.36-29.44V99.74Zm-5.07,57.55H57V78.05h93.41L175.26,103Z"/><polygon class="cls-1" points="36.34 20.78 129.75 20.78 129.75 58.32 138.79 58.32 138.79 16.24 134.27 11.71 92.96 11.71 92.96 1 83.91 1 83.91 11.71 34.46 11.71 31.26 13.04 1.91 42.48 1.91 48.89 31.26 78.33 37.66 71.92 11.51 45.68 36.34 20.78"/></svg>