<svg id="Layer_1" data-name="Layer 1" xmlns="http://www.w3.org/2000/svg" viewBox="0 0 40 40"><defs><style>.cls-1{fill:#fff;}</style></defs><title>28. Mail</title><path class="cls-1" d="M28.57,37.26a20.46,20.46,0,0,1-10,2.24c-9.19,0-17-6.73-17-17.48C1.62,10.48,9.63.5,22.07.5c9.75,0,16.31,6.84,16.31,16.2,0,8.4-4.71,13.33-10,13.33-2.25,0-4.32-1.51-4.15-4.93H24c-2,3.31-4.54,4.93-7.91,4.93s-6-2.63-6-7.06A13.23,13.23,0,0,1,23.36,9.69a14.84,14.84,0,0,1,6,1.18L27.45,21c-.84,4.26-.17,6.22,1.68,6.28,2.86.05,6.06-3.76,6.06-10.26,0-8.12-4.88-13.95-13.57-13.95-9.13,0-16.81,7.23-16.81,18.6,0,9.36,6.11,15.13,14.4,15.13a17.49,17.49,0,0,0,8.47-2Zm-3.08-24.2a9.54,9.54,0,0,0-2.8-.4c-4.93,0-8.91,4.65-8.91,10.09,0,2.46,1.23,4.26,3.7,4.26,3.25,0,6.22-4.15,6.83-7.63Z"/></svg>