<svg id="Layer_1" data-name="Layer 1" xmlns="http://www.w3.org/2000/svg" viewBox="0 0 210 110"><defs><style>.cls-1{fill:#814ce4;}</style></defs><path class="cls-1" d="M47.87,52.87A14.09,14.09,0,1,0,33.79,38.79,14.08,14.08,0,0,0,47.87,52.87Zm0-21.6a7.52,7.52,0,1,1-7.52,7.52A7.52,7.52,0,0,1,47.87,31.27Z"/><path class="cls-1" d="M66.56,85.08l6.56-6.57v-1.7A20.94,20.94,0,0,0,52.2,55.89H43.54A20.94,20.94,0,0,0,22.62,76.81v1.7l6.56,6.57ZM29.18,76.81A14.36,14.36,0,0,1,43.54,62.45H52.2A14.36,14.36,0,0,1,66.56,76.81v1.7H29.18Z"/><polygon class="cls-1" points="198.95 91.25 195.26 91.25 195.26 97.82 202.24 97.82 205.52 94.53 205.52 87.56 198.95 87.56 198.95 91.25"/><rect class="cls-1" x="155.71" y="91.25" width="14.62" height="6.56"/><rect class="cls-1" x="175.49" y="91.25" width="14.62" height="6.56"/><rect class="cls-1" x="135.93" y="91.25" width="14.62" height="6.56"/><polygon class="cls-1" points="127.08 87.56 120.52 87.56 120.52 94.53 123.8 97.82 130.77 97.82 130.77 91.25 127.08 91.25 127.08 87.56"/><rect class="cls-1" x="120.52" y="28.23" width="6.56" height="7.95"/><rect class="cls-1" x="120.52" y="73.59" width="6.56" height="8.81"/><polygon class="cls-1" points="120.52 16.1 120.52 23.07 127.08 23.07 127.08 19.38 130.77 19.38 130.77 12.82 123.8 12.82 120.52 16.1"/><rect class="cls-1" x="135.93" y="12.82" width="14.62" height="6.56"/><rect class="cls-1" x="155.71" y="12.82" width="14.62" height="6.56"/><rect class="cls-1" x="175.49" y="12.82" width="14.62" height="6.56"/><polygon class="cls-1" points="202.24 12.82 195.26 12.82 195.26 19.38 198.95 19.38 198.95 23.07 205.52 23.07 205.52 16.1 202.24 12.82"/><rect class="cls-1" x="198.95" y="67.78" width="6.56" height="14.62"/><rect class="cls-1" x="198.95" y="48.01" width="6.56" height="14.62"/><rect class="cls-1" x="198.95" y="28.23" width="6.56" height="14.62"/><path class="cls-1" d="M90.26,16.1,87,12.82H8.54L5.26,16.1V94.54l3.28,3.28H87l3.28-3.28V58H96V51.38H90.26ZM83.7,91.25H11.82V19.38H83.7Z"/><path class="cls-1" d="M121.17,69.37h.74l6.56-6.56V46.48l-6.56-6.56h-.74a12.84,12.84,0,0,0-12.76,11.46H101V58h7.46A12.86,12.86,0,0,0,121.17,69.37ZM114.9,52.75a6.27,6.27,0,0,1,6.27-6.27h.74V62.81h-.74a6.27,6.27,0,0,1-6.27-6.27Z"/><path class="cls-1" d="M163,52.87a14.09,14.09,0,1,0-14.09-14.08A14.08,14.08,0,0,0,163,52.87Zm0-21.6a7.52,7.52,0,1,1-7.52,7.52A7.52,7.52,0,0,1,163,31.27Z"/><path class="cls-1" d="M158.69,55.89a20.94,20.94,0,0,0-20.92,20.92v1.7l6.56,6.57h37.38l6.56-6.57v-1.7a20.94,20.94,0,0,0-20.92-20.92Zm23,20.92v1.7H144.33v-1.7a14.36,14.36,0,0,1,14.36-14.36h8.66A14.36,14.36,0,0,1,181.71,76.81Z"/></svg>