<svg id="Layer_1" data-name="Layer 1" xmlns="http://www.w3.org/2000/svg" viewBox="0 0 205 160"><defs><style>.cls-1{fill:#814ce4;}</style></defs><path class="cls-1" d="M33.73,118.53A17.72,17.72,0,1,0,16,100.81,17.71,17.71,0,0,0,33.73,118.53Zm0-27.18a9.46,9.46,0,1,1-9.46,9.46A9.48,9.48,0,0,1,33.73,91.35Z"/><path class="cls-1" d="M39.17,122.32H28.28A26.34,26.34,0,0,0,2,148.63v2.14L10.22,159h47l8.26-8.26v-2.14A26.34,26.34,0,0,0,39.17,122.32Zm18.06,28.45h-47v-2.14a18.07,18.07,0,0,1,18.06-18.06H39.17a18.06,18.06,0,0,1,18.06,18.06Z"/><polygon class="cls-1" points="129.5 72.64 129.5 80.89 134.66 80.89 138.79 76.76 138.79 71.6 130.54 71.6 129.5 72.64"/><polygon class="cls-1" points="81.46 73.62 80.52 74.42 84.13 78.67 84.13 80.89 93.26 80.89 93.26 72.64 84.13 72.64 81.46 73.62"/><rect class="cls-1" x="72.28" y="79.34" width="7.91" height="8.26" transform="translate(-35.9 69.17) rotate(-40.33)"/><rect class="cls-1" x="98.44" y="72.64" width="10.36" height="8.25"/><rect class="cls-1" x="113.97" y="72.64" width="10.36" height="8.25"/><polygon class="cls-1" points="59.32 87.82 59.34 94.32 66.14 97.45 71.81 92.64 67.54 87.82 59.32 87.82"/><polygon class="cls-1" points="69.35 81.9 69.32 76.74 65.2 72.64 60.04 72.64 60.04 80.89 61.09 81.94 69.35 81.9"/><polygon class="cls-1" points="57.27 80.89 57.27 72.64 56.24 71.6 47.99 71.6 47.99 76.76 52.12 80.89 57.27 80.89"/><rect class="cls-1" x="47.99" y="58.29" width="8.25" height="8.87"/><rect class="cls-1" x="47.99" y="31.67" width="8.25" height="8.87"/><rect class="cls-1" x="47.99" y="44.98" width="8.25" height="8.87"/><polygon class="cls-1" points="57.27 26.2 57.27 17.95 52.12 17.95 47.99 22.07 47.99 27.23 56.24 27.23 57.27 26.2"/><rect class="cls-1" x="62.83" y="17.95" width="11.11" height="8.25"/><rect class="cls-1" x="112.84" y="17.95" width="11.11" height="8.25"/><polygon class="cls-1" points="129.5 17.95 129.5 26.2 130.54 27.23 138.79 27.23 138.79 22.07 134.66 17.95 129.5 17.95"/><rect class="cls-1" x="130.54" y="31.67" width="8.25" height="8.87"/><rect class="cls-1" x="130.54" y="44.98" width="8.25" height="8.87"/><path class="cls-1" d="M153.69,100.81A17.71,17.71,0,1,0,171.4,83.1,17.71,17.71,0,0,0,153.69,100.81Zm27.17,0a9.46,9.46,0,1,1-9.46-9.46A9.47,9.47,0,0,1,180.86,100.81Z"/><path class="cls-1" d="M176.85,122.32H166a26.34,26.34,0,0,0-26.31,26.31v2.14L147.9,159h47l8.26-8.26v-2.14A26.34,26.34,0,0,0,176.85,122.32Zm18.05,28.45h-47v-2.14a18.06,18.06,0,0,1,18-18.06h10.9a18.06,18.06,0,0,1,18.05,18.06Z"/><path class="cls-1" d="M142.41,64l19.51,16.56,6.8-3.12L168.78,64h7.16l4.13-4.13V5.16L175.94,1H93.39L89.26,5.16V18H79.5V26.2h9.76V59.84L93.39,64h37.15v3.2h8.25V64ZM97.52,26.2h9.76V18H97.52V9.28h74.29V55.72h-7.14l-4.13,4.11,0,8.67L146.59,56.7l-2.67-1H97.52Z"/></svg>