<svg id="Layer_1" data-name="Layer 1" xmlns="http://www.w3.org/2000/svg" viewBox="0 0 290 160"><defs><style>.cls-1{fill:#814ce4;}</style></defs><path class="cls-1" d="M216.43,91a4,4,0,0,0-4.49,3.44l-.65,5a1,1,0,0,1-1,.87H45.41L56.8,12.83a5,5,0,0,1,5-4.36H216.3a6,6,0,0,1,4.71,1.9c1.47,1.75,1.39,4.36,1.06,6.24A4,4,0,1,0,230,18c1.12-6.44-.91-10.5-2.82-12.77A14,14,0,0,0,216.3.48H61.76A13,13,0,0,0,48.87,11.79L37.33,100.36a7.38,7.38,0,0,0,0,1.24,8.36,8.36,0,0,0-1.84,1.68L2.26,144.86a9,9,0,0,0,7,14.62H177.65a13.05,13.05,0,0,0,11.13-6.29l27.34-45.34a4.94,4.94,0,0,0,.7-2.4,8.94,8.94,0,0,0,2.4-5l.65-5A4,4,0,0,0,216.43,91Zm-34.5,58.1a5,5,0,0,1-4.28,2.42H9.3a1,1,0,0,1-.79-1.63l33.2-41.58h0v-.5h0v.5H206.53Z"/><path class="cls-1" d="M135.73,26.78a4,4,0,0,0,0-8h-64a4,4,0,0,0-4,3.42L58.82,82.84a4,4,0,0,0,4,4.58h46.88a4,4,0,1,0,0-8H67.4l7.76-52.65Z"/><path class="cls-1" d="M83.12,143.91h42.07a6,6,0,0,0,5-2.65l11.31-16.76a6,6,0,0,0-5-9.35H95.23a6,6,0,0,0-4.86,2.48L78.26,134.39a6,6,0,0,0,4.86,9.52Zm13.13-20.76h36.48l-8.6,12.76H87Z"/><rect class="cls-1" x="185.45" y="25.16" width="10" height="8" rx="2"/><rect class="cls-1" x="167.45" y="25.16" width="10" height="8" rx="2"/><rect class="cls-1" x="149.46" y="25.16" width="10" height="8" rx="2"/><rect class="cls-1" x="203.45" y="25.16" width="10" height="8" rx="2"/><rect class="cls-1" x="238.82" y="58.23" width="10" height="8" rx="2"/><rect class="cls-1" x="220.82" y="58.23" width="10" height="8" rx="2"/><rect class="cls-1" x="166.83" y="58.23" width="10" height="8" rx="2"/><rect class="cls-1" x="256.81" y="58.23" width="10" height="8" rx="2"/><rect class="cls-1" x="274.81" y="58.23" width="10" height="8" rx="2"/><rect class="cls-1" x="184.83" y="58.23" width="10" height="8" rx="2"/><rect class="cls-1" x="202.82" y="58.23" width="10" height="8" rx="2"/><rect class="cls-1" x="141.77" y="41.7" width="51.13" height="8" rx="2"/><rect class="cls-1" x="200.22" y="41.7" width="23.14" height="8" rx="2"/><rect class="cls-1" x="121.75" y="74.66" width="28.13" height="8" rx="2"/><rect class="cls-1" x="155.81" y="74.66" width="52.13" height="8" rx="2"/><rect class="cls-1" x="230.26" y="41.7" width="34.13" height="8" rx="2"/></svg>