<svg id="Layer_1" data-name="Layer 1" xmlns="http://www.w3.org/2000/svg" viewBox="0 0 183.11 160"><defs><style>.cls-1{fill:#814ce4;}</style></defs><title>16. Enterprise</title><path class="cls-1" d="M180.52,152.24H166.26V36.76l-3.49-3.49H122.1V4.71l-3.49-3.49H21.9L18.41,4.71V152.24H2.59L.84,154v3.49l1.75,1.75H180.52c.68-.69,1.07-1.07,1.75-1.75V154Zm-21.24-112v112H122.1v-112Zm-44.16-32v144H25.39V8.2Z"/><rect class="cls-1" x="85.17" y="22.41" width="8.72" height="6.98" rx="1.74"/><rect class="cls-1" x="59" y="22.41" width="8.72" height="6.98" rx="1.74"/><rect class="cls-1" x="98.26" y="22.41" width="8.72" height="6.98" rx="1.74"/><rect class="cls-1" x="33.53" y="22.41" width="8.02" height="6.98" rx="1.74"/><rect class="cls-1" x="45.91" y="22.41" width="8.72" height="6.98" rx="1.74"/><rect class="cls-1" x="72.08" y="22.41" width="8.72" height="6.98" rx="1.74"/><rect class="cls-1" x="59" y="40.87" width="8.72" height="6.98" rx="1.74"/><rect class="cls-1" x="45.91" y="40.87" width="8.72" height="6.98" rx="1.74"/><rect class="cls-1" x="85.17" y="40.87" width="8.72" height="6.98" rx="1.74"/><rect class="cls-1" x="33.53" y="40.87" width="8.02" height="6.98" rx="1.74"/><rect class="cls-1" x="98.26" y="40.87" width="8.72" height="6.98" rx="1.74"/><rect class="cls-1" x="72.08" y="40.87" width="8.72" height="6.98" rx="1.74"/><rect class="cls-1" x="59" y="59.33" width="8.72" height="6.98" rx="1.74"/><rect class="cls-1" x="85.17" y="59.33" width="8.72" height="6.98" rx="1.74"/><rect class="cls-1" x="72.08" y="59.33" width="8.72" height="6.98" rx="1.74"/><rect class="cls-1" x="33.53" y="59.33" width="8.02" height="6.98" rx="1.74"/><rect class="cls-1" x="45.91" y="59.33" width="8.72" height="6.98" rx="1.74"/><rect class="cls-1" x="98.26" y="59.33" width="8.72" height="6.98" rx="1.74"/><rect class="cls-1" x="85.17" y="77.8" width="8.72" height="6.98" rx="1.74"/><rect class="cls-1" x="33.53" y="77.8" width="8.02" height="6.98" rx="1.74"/><rect class="cls-1" x="72.08" y="77.8" width="8.72" height="6.98" rx="1.74"/><rect class="cls-1" x="59" y="77.8" width="8.72" height="6.98" rx="1.74"/><rect class="cls-1" x="45.91" y="77.8" width="8.72" height="6.98" rx="1.74"/><rect class="cls-1" x="98.26" y="77.8" width="8.72" height="6.98" rx="1.74"/><rect class="cls-1" x="85.17" y="96.26" width="8.72" height="6.98" rx="1.74"/><rect class="cls-1" x="45.91" y="96.26" width="8.72" height="6.98" rx="1.74"/><rect class="cls-1" x="33.53" y="96.26" width="8.02" height="6.98" rx="1.74"/><rect class="cls-1" x="72.08" y="96.26" width="8.72" height="6.98" rx="1.74"/><rect class="cls-1" x="98.26" y="96.26" width="8.72" height="6.98" rx="1.74"/><rect class="cls-1" x="59" y="96.26" width="8.72" height="6.98" rx="1.74"/><rect class="cls-1" x="98.26" y="114.73" width="8.72" height="6.98" rx="1.74"/><rect class="cls-1" x="45.91" y="114.73" width="8.72" height="6.98" rx="1.74"/><rect class="cls-1" x="33.53" y="114.73" width="8.02" height="6.98" rx="1.74"/><rect class="cls-1" x="59" y="114.73" width="8.72" height="6.98" rx="1.74"/><rect class="cls-1" x="85.17" y="114.73" width="8.72" height="6.98" rx="1.74"/><rect class="cls-1" x="72.08" y="114.73" width="8.72" height="6.98" rx="1.74"/><rect class="cls-1" x="85.17" y="133.19" width="8.72" height="6.98" rx="1.74"/><rect class="cls-1" x="33.53" y="133.19" width="8.02" height="6.98" rx="1.74"/><rect class="cls-1" x="45.91" y="133.19" width="8.72" height="6.98" rx="1.74"/><rect class="cls-1" x="72.08" y="133.19" width="8.72" height="6.98" rx="1.74"/><rect class="cls-1" x="98.26" y="133.19" width="8.72" height="6.98" rx="1.74"/><rect class="cls-1" x="59" y="133.19" width="8.72" height="6.98" rx="1.74"/></svg>