<svg id="Layer_1" data-name="Layer 1" xmlns="http://www.w3.org/2000/svg" viewBox="0 0 114 110"><defs><style>.cls-1{fill:#814ce4;}.cls-2{fill:#fff;}</style></defs><title>22. Kubernetes</title><g id="layer1"><path id="path3054-2-9" class="cls-1" d="M57,1.33a7.26,7.26,0,0,0-2.83.72L15.46,20.53a7.38,7.38,0,0,0-4,5L1.92,67a7.23,7.23,0,0,0,1,5.63c.13.19.27.39.42.58l26.78,33.31a7.46,7.46,0,0,0,5.79,2.76l42.94,0a7.46,7.46,0,0,0,5.79-2.76l26.78-33.3A7.25,7.25,0,0,0,112.86,67l-9.57-41.52a7.35,7.35,0,0,0-4-5L60.58,2.05A7.37,7.37,0,0,0,57,1.33Z"/><path id="path3059" class="cls-2" d="M57.38,16.35a2.4,2.4,0,0,0-2.26,2.51v.06c0,.19,0,.42,0,.59a17.65,17.65,0,0,0,.31,2.15,20.3,20.3,0,0,1,.25,4.1,2.35,2.35,0,0,1-.74,1.18l0,1A29.44,29.44,0,0,0,36,37l-.82-.59a1.77,1.77,0,0,1-1.35-.13,21,21,0,0,1-3.05-2.75,19.75,19.75,0,0,0-1.49-1.58c-.13-.12-.35-.28-.49-.4A2.78,2.78,0,0,0,27.23,31a2.19,2.19,0,0,0-1.81.8A2.42,2.42,0,0,0,26,35.1l0,0c.15.12.32.28.46.37a18.53,18.53,0,0,0,1.87,1.1A21.94,21.94,0,0,1,31.72,39a2.6,2.6,0,0,1,.45,1.3l.73.65a29.21,29.21,0,0,0-4.62,20.41l-.94.28c-.25.33-.61.84-1,1a21.13,21.13,0,0,1-4.05.66c-.75.07-1.38,0-2.17.17l-.6.14h0s0,0,0,0a2.27,2.27,0,1,0,1,4.41h0l0,0,.59-.12a18.61,18.61,0,0,0,2-.77,20.62,20.62,0,0,1,3.95-1.16,2.39,2.39,0,0,1,1.3.46l1-.17a29.5,29.5,0,0,0,13,16.3l-.42,1a2.24,2.24,0,0,1,.2,1.28,21.83,21.83,0,0,1-2,3.69A17.27,17.27,0,0,0,39,90.28c-.09.17-.2.43-.29.6a2.27,2.27,0,1,0,4.08,2h0c.09-.17.2-.4.28-.57a15.87,15.87,0,0,0,.65-2.07c.6-1.5.93-3.08,1.75-4.07a1.82,1.82,0,0,1,1-.48l.52-.93a29.12,29.12,0,0,0,20.89,0c.14.27.42.75.48.87a1.78,1.78,0,0,1,1.16.7,20.61,20.61,0,0,1,1.55,3.8,21.58,21.58,0,0,0,.65,2.08c.08.17.2.4.28.59a2.27,2.27,0,1,0,4.09-1.94c-.1-.18-.21-.43-.3-.6a19,19,0,0,0-1.21-1.81,23.29,23.29,0,0,1-2-3.59,1.78,1.78,0,0,1,.17-1.33,7.2,7.2,0,0,1-.37-.92A29.4,29.4,0,0,0,85.4,66.18l1,.17a1.75,1.75,0,0,1,1.27-.46,20.12,20.12,0,0,1,4,1.16c.69.26,1.25.57,2,.79.17,0,.41.07.59.12h.08a2.27,2.27,0,1,0,1-4.41c-.2,0-.46-.12-.65-.15a16.22,16.22,0,0,0-2.16-.17,21.19,21.19,0,0,1-4.06-.67,2.36,2.36,0,0,1-1-1l-.92-.27A29.45,29.45,0,0,0,81.79,41l.81-.72A1.74,1.74,0,0,1,83,39a21.65,21.65,0,0,1,3.38-2.37,16.67,16.67,0,0,0,1.88-1.1c.14-.1.34-.27.5-.4a2.41,2.41,0,0,0,.56-3.34,2.39,2.39,0,0,0-3.38-.2c-.15.12-.37.28-.49.4A19.93,19.93,0,0,0,84,33.52a22.08,22.08,0,0,1-3,2.75,2.49,2.49,0,0,1-1.38.16l-.87.62A29.67,29.67,0,0,0,59.89,28c0-.29,0-.85,0-1a1.83,1.83,0,0,1-.74-1.13,21.1,21.1,0,0,1,.26-4.11,17.65,17.65,0,0,0,.31-2.15v-.65a2.47,2.47,0,0,0-2.29-2.57ZM54.53,33.92l-.66,11.87,0,0a2,2,0,0,1-2,1.91,1.92,1.92,0,0,1-1.18-.39l0,0L40.9,40.45a23.21,23.21,0,0,1,11.24-6.11A20.67,20.67,0,0,1,54.53,33.92Zm5.69,0a23.6,23.6,0,0,1,13.55,6.53L64.1,47.31h0a2,2,0,0,1-2.74-.38,1.87,1.87,0,0,1-.43-1.16h0Zm-22.85,11,8.88,8v0a2,2,0,0,1,.25,2.75,2,2,0,0,1-1,.68l0,0L34,59.65A23.32,23.32,0,0,1,37.37,44.9Zm39.95,0A23.62,23.62,0,0,1,80.23,52a23.25,23.25,0,0,1,.49,7.58L69.27,56.3l0,0a2,2,0,0,1-1.42-2.37,1.88,1.88,0,0,1,.64-1v0l8.85-7.91ZM55.56,53.46h3.63l2.26,2.83-.8,3.53L57.38,61.4,54.1,59.82l-.8-3.53Zm11.67,9.69a1.43,1.43,0,0,1,.46,0l0,0,11.79,2A23.37,23.37,0,0,1,70.06,77L65.48,66v0a2,2,0,0,1,1-2.58,1.74,1.74,0,0,1,.78-.2Zm-19.8,0A2,2,0,0,1,49.24,66l0,.05L44.75,77a23.49,23.49,0,0,1-9.41-11.78l11.69-2v0a1.75,1.75,0,0,1,.39,0ZM57.31,68a1.8,1.8,0,0,1,.92.21,1.91,1.91,0,0,1,.9.85h0l5.76,10.4c-.75.25-1.52.46-2.31.65a23.35,23.35,0,0,1-12.77-.65L55.6,69h0A2,2,0,0,1,57.31,68Z"/></g></svg>