<svg id="Layer_1" data-name="Layer 1" xmlns="http://www.w3.org/2000/svg" viewBox="0 0 150 110"><defs><style>.cls-1{fill:#814ce4;}</style></defs><title>24. Docker</title><path class="cls-1" d="M84.37,51.1h14.9V37.62H84.37Zm-17.73,0h14.9V37.62H66.64Zm-17.37,0H64.16V37.62H49.27Zm-17.38,0H46.43V37.62H31.89Zm-17.73,0H29.05V37.62H14.16ZM31.89,34.79H46.43V21.31H31.89Zm17.38,0H64.16V21.31H49.27Zm17.37,0h14.9V21.31H66.64Zm0-16.31h14.9V5H66.64Zm80.14,26.59s-6.38-6-19.5-3.9c-1.42-10.28-12.41-16.31-12.41-16.31S104.59,37.27,112,51.1a23.82,23.82,0,0,1-11,2.48H3.52C1.75,60.32,1.75,105,50.68,105c35.11,0,61.35-16.31,73.76-46.1C142.88,60.32,146.78,45.07,146.78,45.07Z"/></svg>