<svg id="Layer_1" data-name="Layer 1" xmlns="http://www.w3.org/2000/svg" viewBox="0 0 212 110"><defs><style>.cls-1{fill:#814ce4;}</style></defs><path class="cls-1" d="M22.69,60.58A6.46,6.46,0,1,1,16.24,67a6.46,6.46,0,0,1,6.45-6.46m0-5.63A12.09,12.09,0,1,0,34.77,67,12.08,12.08,0,0,0,22.69,55Z"/><path class="cls-1" d="M26.4,87.33A12.32,12.32,0,0,1,38.72,99.64v1.47H6.66V99.64A12.31,12.31,0,0,1,19,87.33H26.4m0-5.63H19A18,18,0,0,0,1,99.64v1.47l5.63,5.63H38.72l5.63-5.63V99.64a18,18,0,0,0-18-17.94Z"/><path class="cls-1" d="M77,60.58A6.46,6.46,0,1,1,70.54,67,6.47,6.47,0,0,1,77,60.58M77,55A12.09,12.09,0,1,0,89.07,67,12.08,12.08,0,0,0,77,55Z"/><path class="cls-1" d="M80.7,87.33A12.32,12.32,0,0,1,93,99.64v1.47H61V99.64A12.31,12.31,0,0,1,73.27,87.33H80.7m0-5.63H73.27A18,18,0,0,0,55.33,99.64v1.47L61,106.74H93l5.62-5.63V99.64A18,18,0,0,0,80.7,81.7Z"/><path class="cls-1" d="M50.34,6.56A6.45,6.45,0,1,1,43.89,13a6.46,6.46,0,0,1,6.45-6.45m0-5.63A12.08,12.08,0,1,0,62.42,13,12.08,12.08,0,0,0,50.34.93Z"/><path class="cls-1" d="M54.06,33.31A12.31,12.31,0,0,1,66.37,45.62v1.47H34.32V45.62A12.31,12.31,0,0,1,46.63,33.31h7.43m0-5.63H46.63A18,18,0,0,0,28.69,45.62v1.47l5.63,5.62H66.37L72,47.09V45.62A18,18,0,0,0,54.06,27.68Z"/><path class="cls-1" d="M167.5,6.56A6.45,6.45,0,1,1,161.05,13a6.46,6.46,0,0,1,6.45-6.45m0-5.63A12.08,12.08,0,1,0,179.58,13,12.08,12.08,0,0,0,167.5.93Z"/><path class="cls-1" d="M171.21,33.31a12.32,12.32,0,0,1,12.32,12.31v1.47H151.47V45.62a12.31,12.31,0,0,1,12.31-12.31h7.43m0-5.63h-7.43a18,18,0,0,0-17.94,17.94v1.47l5.63,5.62h32.06l5.63-5.62V45.62a18,18,0,0,0-17.95-17.94Z"/><path class="cls-1" d="M150.7,70l9.84,9.83v22.68H136.78l0-32.51h13.9M153,64.32H135.52a4.37,4.37,0,0,0-4.35,4.38l0,35a4.37,4.37,0,0,0,4.35,4.38h26.29a4.39,4.39,0,0,0,4.38-4.38V77.45L153,64.32Z"/><path class="cls-1" d="M194.29,68.41a10.53,10.53,0,0,1,10.52,10.52c0,5.61-5.43,14.52-10.52,21.17-5.09-6.66-10.52-15.56-10.52-21.17a10.53,10.53,0,0,1,10.52-10.52m0-5.63a16.17,16.17,0,0,0-16.15,16.15c0,12.12,16.15,30,16.15,30s16.15-17.88,16.15-30a16.17,16.17,0,0,0-16.15-16.15Z"/><path class="cls-1" d="M194.29,78.41a1.6,1.6,0,1,1-1.6,1.6,1.6,1.6,0,0,1,1.6-1.6m0-4.93A6.53,6.53,0,1,0,200.81,80a6.52,6.52,0,0,0-6.52-6.53Z"/><polygon class="cls-1" points="122.06 53.27 116.34 53.27 116.34 47.56 110.71 47.56 110.71 53.27 105 53.27 105 58.9 110.71 58.9 110.71 64.62 116.34 64.62 116.34 58.9 122.06 58.9 122.06 53.27"/></svg>