<svg id="Layer_1" data-name="Layer 1" xmlns="http://www.w3.org/2000/svg" viewBox="0 0 133 46">
<path class="cls-1" d="M56.35,21.53a15.71,15.71,0,0,1-1.85-.38,5,5,0,0,1-1.33-.54,2.33,2.33,0,0,1-.8-.79,2.19,2.19,0,0,1-.27-1.12v-.14a2.07,2.07,0,0,1,.27-1.07,2.36,2.36,0,0,1,.73-.78,3.33,3.33,0,0,1,1.06-.49,4.53,4.53,0,0,1,1.24-.17,5.15,5.15,0,0,1,1.43.2,4.2,4.2,0,0,1,1.2.59,2.82,2.82,0,0,1,.83,1,2.92,2.92,0,0,1,.3,1.35V20h1.9V19a4.52,4.52,0,0,0-.37-1.82,4.24,4.24,0,0,0-1.1-1.52,5.41,5.41,0,0,0-1.78-1,6.79,6.79,0,0,0-2.38-.39,7.09,7.09,0,0,0-2.12.31,4.81,4.81,0,0,0-1.65.87,4,4,0,0,0-1.08,1.34,3.68,3.68,0,0,0-.38,1.69v.28a4,4,0,0,0,.36,1.76,3.57,3.57,0,0,0,1,1.28,5.42,5.42,0,0,0,1.64.86,11.47,11.47,0,0,0,2.16.49,7,7,0,0,1,3,.95A2.2,2.2,0,0,1,59.3,26v.14a2.6,2.6,0,0,1-.9,2.07,3.93,3.93,0,0,1-2.66.78,4.56,4.56,0,0,1-3.18-1,4,4,0,0,1-1.14-3.13v-.54h-1.9V25a6.35,6.35,0,0,0,.4,2.3,5.19,5.19,0,0,0,3.14,3.05,7.42,7.42,0,0,0,2.68.45,7.67,7.67,0,0,0,2.36-.34,5,5,0,0,0,1.71-.95,4.07,4.07,0,0,0,1-1.46,4.94,4.94,0,0,0,.35-1.87v-.27A3.71,3.71,0,0,0,60,23,7,7,0,0,0,56.35,21.53Z"/>

<path class="cls-1" d="M73,20.4a4.67,4.67,0,0,0-1.64-1.11,5.05,5.05,0,0,0-2-.39,5,5,0,0,0-2.26.53A3.89,3.89,0,0,0,65.46,21h-.28V19.22H63.42V35h1.76V28.73h.28a3.13,3.13,0,0,0,.72.89,5,5,0,0,0,.94.64,4.47,4.47,0,0,0,1.08.38,4.67,4.67,0,0,0,1.11.13,5.44,5.44,0,0,0,2-.38A4.75,4.75,0,0,0,73,29.3a5.26,5.26,0,0,0,1.13-1.79,6.88,6.88,0,0,0,.4-2.45v-.45a6.53,6.53,0,0,0-.42-2.42A5.17,5.17,0,0,0,73,20.4Zm-.26,4.66a4.7,4.7,0,0,1-.28,1.68,3.57,3.57,0,0,1-2,2.07,3.85,3.85,0,0,1-1.5.28,3.74,3.74,0,0,1-1.47-.29A3.68,3.68,0,0,1,66.28,28a3.9,3.9,0,0,1-.8-1.3,4.58,4.58,0,0,1-.3-1.69V24.7a4.55,4.55,0,0,1,.3-1.67,3.77,3.77,0,0,1,2-2.15,3.58,3.58,0,0,1,1.47-.3,3.88,3.88,0,0,1,1.49.29,3.59,3.59,0,0,1,1.2.83A3.74,3.74,0,0,1,72.42,23a4.48,4.48,0,0,1,.28,1.64Z"/><path class="cls-1" d="M86.28,20.67a5.36,5.36,0,0,0-1.66-1.26,5.23,5.23,0,0,0-2.39-.51,5.55,5.55,0,0,0-3.94,1.58,5.3,5.3,0,0,0-1.16,1.75,5.71,5.71,0,0,0-.42,2.2V25a6.3,6.3,0,0,0,.41,2.35,5.53,5.53,0,0,0,1.13,1.84A5,5,0,0,0,80,30.35a5.69,5.69,0,0,0,2.21.42,5.48,5.48,0,0,0,3.45-1,5,5,0,0,0,1.76-2.55l-1.68-.45a3.69,3.69,0,0,1-.42.9,2.61,2.61,0,0,1-.68.73,3.18,3.18,0,0,1-1,.5,4.71,4.71,0,0,1-1.38.18,3.57,3.57,0,0,1-2.71-1,4,4,0,0,1-1-2.69h9.06V23.93a5.15,5.15,0,0,0-1.25-3.26Zm-7.76,3.08a3.58,3.58,0,0,1,.4-1.26,3.5,3.5,0,0,1,.79-1,3.43,3.43,0,0,1,1.13-.66,4,4,0,0,1,1.39-.24,3.71,3.71,0,0,1,1.28.22,3.79,3.79,0,0,1,1.11.64,3.23,3.23,0,0,1,.8,1,3.35,3.35,0,0,1,.35,1.32Z"/><path class="cls-1" d="M99.29,20.67a5.31,5.31,0,0,0-1.65-1.26,5.23,5.23,0,0,0-2.39-.51,5.55,5.55,0,0,0-3.94,1.58,5.3,5.3,0,0,0-1.16,1.75,5.71,5.71,0,0,0-.42,2.2V25a6.3,6.3,0,0,0,.41,2.35,5.53,5.53,0,0,0,1.13,1.84A5,5,0,0,0,93,30.35a5.69,5.69,0,0,0,2.21.42,5.48,5.48,0,0,0,3.45-1,4.87,4.87,0,0,0,1.75-2.55l-1.67-.45a4.63,4.63,0,0,1-.42.9,2.61,2.61,0,0,1-.68.73,3.18,3.18,0,0,1-1,.5,4.71,4.71,0,0,1-1.38.18,3.55,3.55,0,0,1-2.71-1,4,4,0,0,1-1.05-2.69h9.06V23.93a5.09,5.09,0,0,0-1.26-3.26Zm-7.75,3.08a3.58,3.58,0,0,1,.4-1.26,3.5,3.5,0,0,1,.79-1,3.43,3.43,0,0,1,1.13-.66,3.94,3.94,0,0,1,1.39-.24,3.71,3.71,0,0,1,1.28.22,3.79,3.79,0,0,1,1.11.64,3.06,3.06,0,0,1,.79,1,3.19,3.19,0,0,1,.35,1.32Z"/><path class="cls-1" d="M112.08,21h-.28a3.49,3.49,0,0,0-1.55-1.58,4.71,4.71,0,0,0-2.16-.51,5.51,5.51,0,0,0-2.06.39,4.84,4.84,0,0,0-1.7,1.12,5.3,5.3,0,0,0-1.15,1.81,6.46,6.46,0,0,0-.43,2.43V25a6.66,6.66,0,0,0,.42,2.45,5,5,0,0,0,1.15,1.8A4.86,4.86,0,0,0,106,30.38a5.62,5.62,0,0,0,2.11.39,4.29,4.29,0,0,0,1-.13,4.69,4.69,0,0,0,1-.37,4.23,4.23,0,0,0,.9-.64,3.08,3.08,0,0,0,.69-.9h.28v1.72h1.76V14.6h-1.76Zm0,4a4.58,4.58,0,0,1-.3,1.69A4.07,4.07,0,0,1,111,28a3.68,3.68,0,0,1-1.19.84,3.74,3.74,0,0,1-1.47.29,3.85,3.85,0,0,1-1.5-.28,3.48,3.48,0,0,1-1.19-.82,3.69,3.69,0,0,1-.79-1.28,4.68,4.68,0,0,1-.28-1.69v-.37a4.61,4.61,0,0,1,.28-1.65,3.83,3.83,0,0,1,.79-1.29,3.62,3.62,0,0,1,1.2-.84,3.88,3.88,0,0,1,1.49-.29,3.63,3.63,0,0,1,1.46.3,3.79,3.79,0,0,1,1.2.85,4.07,4.07,0,0,1,.8,1.3,4.55,4.55,0,0,1,.3,1.67Z"/><path class="cls-1" d="M118.2,14.6h-1.72V28.7A1.71,1.71,0,0,0,117,30a1.92,1.92,0,0,0,1.42.48h2.2V29.07H118.2Z"/><path class="cls-1" d="M131.84,23.93a5.15,5.15,0,0,0-1.25-3.26,5.2,5.2,0,0,0-4-1.77,5.55,5.55,0,0,0-3.94,1.58,5.3,5.3,0,0,0-1.16,1.75,5.71,5.71,0,0,0-.42,2.2V25a6.51,6.51,0,0,0,.41,2.35,5.53,5.53,0,0,0,1.13,1.84,5,5,0,0,0,1.73,1.19,5.69,5.69,0,0,0,2.21.42,5.48,5.48,0,0,0,3.45-1,5,5,0,0,0,1.76-2.55L130,26.78a3.69,3.69,0,0,1-.42.9,2.61,2.61,0,0,1-.68.73,3.23,3.23,0,0,1-1,.5,4.83,4.83,0,0,1-1.39.18,3.57,3.57,0,0,1-2.71-1,3.94,3.94,0,0,1-1-2.69h9Zm-9-.18a3.58,3.58,0,0,1,.4-1.26,3.68,3.68,0,0,1,.79-1,3.43,3.43,0,0,1,1.13-.66,4,4,0,0,1,1.39-.24,3.71,3.71,0,0,1,1.28.22,3.79,3.79,0,0,1,1.11.64,3.23,3.23,0,0,1,.8,1,3.35,3.35,0,0,1,.35,1.32Z"/>
<g>
<path class="cls-1" d="M45,14.86l-.14-.35-.11-.19L34.92,3l-.18-.14-.33-.18-.21-.08L19.42.26h-.23l-.37.07-.21.09L5.77,8.11l-.17.15-.24.29-.11.2L.37,22.9l0,.23v.37l0,.23,5.36,14,.11.2.25.28.18.14,13.08,7.27.22.07.36.06h.23l14.7-2.84.21-.09.32-.19.17-.15L45,30.83l.11-.2.12-.35,0-.23-.25-15Zm-2.35,1.37-2.86,8.54L37.84,15l4.78.7ZM41.18,13.9l-3.88-.63-.81-3.21L36,7.87Zm-23.44-.21-2.21-.4L13.93,13l6.92-3.09Zm5.11-3.54,1.23-1.53,10.08,5.21-.9.22c-.91.21-1.85.46-2.8.74l-.07,0L19.9,13.83ZM15.19,15l1.56.32L13.46,23l-1.6-8.77ZM12.48,25.33l0,.06L8.64,26l2.28-8.84Zm.25,1.43,4.38,3.81-1.8-.84c-1.48-.67-3-1.34-4.45-2l-.9-.4Zm1.85,4.58c.92.42,1.85.82,2.76,1.22l1.07.46L21,34.09l-4.68,3.24-6-8Zm8,3.63.87.59c.81.54,1.64,1.1,2.48,1.63l1,.63-8.3-.24Zm4.31.74c-.84-.55-1.69-1.07-2.52-1.58l-.06,0,7.46-4.48-2,8.09-1-.7-.48-.33Zm-4.21-2.93-8.16-7.11,4.24-10,10.78,1,2.43,10.55Zm11-4.24,2.5.16,1.28.09-5.58,6.6ZM36.26,27l-2.38-.08-1.66-7.2L37.82,27Q37.07,27,36.26,27Zm1.45-2.49-6-8.23c.67-.19,1.32-.38,2-.58s1.4-.43,2.12-.68ZM33.4,5c.48,1.86,1,3.72,1.45,5.54l.45,1.71L26.13,7.46l.59-.2L27.61,7l1.65-.56,2.53-.88Zm-3.47-.58-1.24.47-1.63.63-.87.34-1.61.65-.23.09h-.06L22.18,4,21.4,3ZM19.37,2.77,21,4.91,22.56,7,11,12.16,8,9.61Zm-13,29.79L3.75,25.79l.19.13c.39.27.8.52,1.2.76l1.35.83,0,.06Zm-.27-7.34c-.38-.26-.77-.53-1.16-.77s-.67-.41-1-.6l-.53-.32-.11-.06-.46-.26,4.3-12.45,2.75,2.69L6.7,25.65ZM7.83,36.43l-.21-.53L8,29.6l7.13,9.48.22.19.25.13h0l1.49,2.19Zm12.32,6.84-.34-.18-2.32-3.57,12.67.36.18,0L32.13,41Zm13.9-2.76L31.5,38.87l8.27-9.78.13.06,1.53.63,1,.4Zm8-12.2L40.6,27.6l-.29-.13,2.4-6.86.13,8.07Z"/>
</g>
    <defs>
        <style type="text/css">
            g {
                transform-origin: 23px 23px;
                animation: rotate  4s linear infinite;
            }
            @keyframes rotate {
                to {
                    transform: rotate(360deg);
                }
            }
        </style>
    </defs>
</svg>
